<?xml version="1.0" encoding="UTF-8"?>
<!DOCTYPE svg PUBLIC "-//W3C//DTD SVG 1.1//EN" "http://www.w3.org/Graphics/SVG/1.1/DTD/svg11.dtd">
<svg xmlns="http://www.w3.org/2000/svg" version="1.1" width="1024px" height="1024px" style="shape-rendering:geometricPrecision; text-rendering:geometricPrecision; image-rendering:optimizeQuality; fill-rule:evenodd; clip-rule:evenodd" xmlns:xlink="http://www.w3.org/1999/xlink">
<g><path style="opacity:1" fill="#d9e9f1" d="M -0.5,-0.5 C 340.833,-0.5 682.167,-0.5 1023.5,-0.5C 1023.5,340.833 1023.5,682.167 1023.5,1023.5C 1007.17,1023.5 990.833,1023.5 974.5,1023.5C 972.324,1011.13 969.991,998.798 967.5,986.5C 968.209,985.596 969.209,985.263 970.5,985.5C 970.373,972.466 969.706,959.466 968.5,946.5C 968.5,943.833 968.5,941.167 968.5,938.5C 983.791,937.007 995.957,930.007 1005,917.5C 1006.73,913.637 1008.07,909.637 1009,905.5C 1009.79,894.464 1009.45,883.464 1008,872.5C 1003.85,842.122 997.851,812.122 990,782.5C 986.955,774.078 983.121,766.078 978.5,758.5C 990.579,756.991 997.579,750.325 999.5,738.5C 998.098,732.714 994.931,728.047 990,724.5C 988.139,722.112 986.806,719.446 986,716.5C 985.503,704.466 986.003,692.466 987.5,680.5C 987.382,650.174 972.882,631.174 944,623.5C 941.813,590.149 924.313,570.482 891.5,564.5C 892.14,554.442 891.473,544.775 889.5,535.5C 890.625,533.871 891.959,532.371 893.5,531C 906.167,530.667 918.833,530.333 931.5,530C 952.579,527.916 967.079,517.082 975,497.5C 984.414,466.183 974.914,442.683 946.5,427C 941.968,425.378 937.301,424.378 932.5,424C 918.504,423.5 904.504,423.333 890.5,423.5C 890.667,377.165 890.5,330.832 890,284.5C 888.454,278.814 885.287,274.481 880.5,271.5C 878.779,269.306 876.445,268.139 873.5,268C 623.834,267.5 374.167,267.333 124.5,267.5C 113.258,270.241 106.091,277.241 103,288.5C 102.5,307.164 102.333,325.83 102.5,344.5C 86.5899,343.594 71.5899,346.761 57.5,354C 55.0038,355.331 53.0038,357.164 51.5,359.5C 46.5557,362.349 42.7224,366.349 40,371.5C 29.3388,390.002 27.6721,409.335 35,429.5C 43.7771,447.608 57.9438,459.108 77.5,464C 86.1144,465.297 94.7811,465.797 103.5,465.5C 102.167,497.167 102.167,528.833 103.5,560.5C 92.9263,567.324 87.9263,577.158 88.5,590C 89.5769,607.728 94.5769,624.228 103.5,639.5C 102.176,657.069 102.176,674.736 103.5,692.5C 84.0909,700.09 66.9242,711.09 52,725.5C 41.5476,738.073 34.5476,752.406 31,768.5C 24.6774,799.592 20.1774,830.925 17.5,862.5C 17.2434,879.213 17.91,895.88 19.5,912.5C 23.5013,944.006 30.0013,975.006 39,1005.5C 40.4443,1007.16 42.2776,1007.82 44.5,1007.5C 44.4724,1012.86 44.8058,1018.2 45.5,1023.5C 30.1667,1023.5 14.8333,1023.5 -0.5,1023.5C -0.5,682.167 -0.5,340.833 -0.5,-0.5 Z"/></g>
<g><path style="opacity:1" fill="#1c2e4d" d="M 790.5,37.5 C 789.799,34.4371 789.132,31.2704 788.5,28C 782.782,27.7891 777.115,27.2891 771.5,26.5C 759.884,27.4789 748.218,27.8122 736.5,27.5C 736.5,31.1667 736.5,34.8333 736.5,38.5C 743.255,37.8771 749.588,38.5437 755.5,40.5C 755.5,58.8333 755.5,77.1667 755.5,95.5C 754.503,77.3409 754.17,59.0076 754.5,40.5C 748.491,40.6662 742.491,40.4995 736.5,40C 734.941,38.0042 734.274,35.6709 734.5,33C 734.274,30.3291 734.941,27.9958 736.5,26C 754.167,25.3333 771.833,25.3333 789.5,26C 790.46,29.73 790.793,33.5633 790.5,37.5 Z"/></g>
<g><path style="opacity:1" fill="#193350" d="M 160.5,24.5 C 171.661,22.8385 181.828,25.1719 191,31.5C 191.627,36.3123 189.96,39.979 186,42.5C 178.035,39.7687 169.868,38.9354 161.5,40C 151.251,46.3455 147.418,55.5121 150,67.5C 152.415,78.0562 159.082,83.7229 170,84.5C 175.741,84.1189 181.241,82.7856 186.5,80.5C 187.442,80.6082 188.275,80.9415 189,81.5C 193.847,89.5858 191.681,94.7524 182.5,97C 160.462,103.227 144.629,96.0605 135,75.5C 129.731,58.838 133.231,44.338 145.5,32C 150.313,28.9267 155.313,26.4267 160.5,24.5 Z"/></g>
<g><path style="opacity:1" fill="#183350" d="M 552.5,24.5 C 583.419,23.586 597.919,38.586 596,69.5C 591.267,88.3894 579.1,98.3894 559.5,99.5C 537.453,96.4512 525.786,83.7846 524.5,61.5C 525.43,42.5808 534.763,30.2475 552.5,24.5 Z"/></g>
<g><path style="opacity:1" fill="#1c3754" d="M 282.5,26.5 C 286.833,25.1667 291.167,25.1667 295.5,26.5C 295.062,26.4346 294.728,26.6012 294.5,27C 295.327,45.76 295.827,64.5933 296,83.5C 296.5,64.8363 296.667,46.1696 296.5,27.5C 297.497,45.9925 297.83,64.6592 297.5,83.5C 305.507,83.3336 313.507,83.5003 321.5,84C 323.059,85.9958 323.726,88.3291 323.5,91C 323.333,92.8333 323.167,94.6667 323,96.5C 322.617,97.056 322.117,97.3893 321.5,97.5C 308.765,96.8246 295.931,96.158 283,95.5C 282.521,72.1964 282.354,49.1964 282.5,26.5 Z"/></g>
<g><path style="opacity:1" fill="#18334f" d="M 696.5,25.5 C 702.176,25.3339 707.843,25.5006 713.5,26C 722.219,48.6212 730.552,71.4545 738.5,94.5C 738.392,95.4419 738.059,96.2753 737.5,97C 732.833,97.6667 728.167,97.6667 723.5,97C 721.131,92.3927 719.464,87.5594 718.5,82.5C 709.475,82.1685 700.475,82.5018 691.5,83.5C 689.969,88.0595 688.303,92.5595 686.5,97C 681.581,97.8015 676.748,97.6349 672,96.5C 679.245,72.601 687.412,48.9344 696.5,25.5 Z"/></g>
<g><path style="opacity:1" fill="#0a203d" d="M 649.5,30.5 C 647.188,29.6805 644.854,28.8471 642.5,28C 631.505,27.5002 620.505,27.3335 609.5,27.5C 609.5,50.5 609.5,73.5 609.5,96.5C 613.767,96.797 617.934,96.4637 622,95.5C 622.171,87.9885 622.671,80.6552 623.5,73.5C 623.666,81.1739 623.5,88.8406 623,96.5C 618,97.8333 613,97.8333 608,96.5C 607.333,73.5 607.333,50.5 608,27.5C 608.5,27 609,26.5 609.5,26C 619.5,25.3333 629.5,25.3333 639.5,26C 643.422,26.4624 646.755,27.9624 649.5,30.5 Z"/></g>
<g><path style="opacity:1" fill="#dbe9f1" d="M 554.5,39.5 C 573.911,38.7483 582.411,48.0816 580,67.5C 575.007,83.5786 564.84,88.0786 549.5,81C 545.619,78.0724 543.119,74.2391 542,69.5C 541.13,63.0828 541.464,56.7494 543,50.5C 545.437,45.2262 549.271,41.5595 554.5,39.5 Z"/></g>
<g><path style="opacity:1" fill="#183350" d="M 439.5,57.5 C 438.903,57.7352 438.57,58.2352 438.5,59C 443.334,71.3367 447.668,83.8367 451.5,96.5C 446.968,96.1818 442.634,96.5151 438.5,97.5C 435.352,93.0772 433.352,88.0772 432.5,82.5C 423.5,82.5 414.5,82.5 405.5,82.5C 404.257,87.4853 402.59,92.3186 400.5,97C 395.511,97.4993 390.511,97.6659 385.5,97.5C 385.605,93.6811 386.438,90.0145 388,86.5C 395.308,66.2394 402.808,46.0727 410.5,26C 416.416,25.1928 422.25,25.3594 428,26.5C 431.939,36.8184 435.772,47.1517 439.5,57.5 Z"/></g>
<g><path style="opacity:1" fill="#162b46" d="M 803.5,25.5 C 817.504,25.3334 831.504,25.5001 845.5,26C 846,26.5 846.5,27 847,27.5C 847.667,30.8333 847.667,34.1667 847,37.5C 846.5,38.6667 845.667,39.5 844.5,40C 835.173,40.4998 825.839,40.6665 816.5,40.5C 816.5,45.1667 816.5,49.8333 816.5,54.5C 824.352,54.1746 832.018,54.508 839.5,55.5C 831.833,55.5 824.167,55.5 816.5,55.5C 816.657,56.8734 816.49,58.2068 816,59.5C 815.692,58.6919 815.192,58.0253 814.5,57.5C 813.575,58.6405 812.741,58.6405 812,57.5C 810.291,60.0793 809.124,59.746 808.5,56.5C 809.938,54.6555 809.604,53.4888 807.5,53C 807.833,52.6667 808.167,52.3333 808.5,52C 806.56,52.1781 804.893,51.1781 803.5,49C 804.549,48.5078 805.549,48.6744 806.5,49.5C 807.517,46.972 808.684,46.972 810,49.5C 810.617,48.5509 810.451,47.7175 809.5,47C 810.759,46.0181 812.092,45.6848 813.5,46C 813.656,47.6704 812.99,49.337 811.5,51C 812.34,52.1712 813.173,53.3379 814,54.5C 814.217,49.4473 814.717,44.4473 815.5,39.5C 825.478,38.5015 835.478,38.1681 845.5,38.5C 845.793,34.5633 845.46,30.73 844.5,27C 830.661,26.8311 816.994,26.3311 803.5,25.5 Z"/></g>
<g><path style="opacity:1" fill="#18324f" d="M 464.5,25.5 C 475.877,25.1744 487.21,25.6744 498.5,27C 510.411,30.9822 514.911,39.1489 512,51.5C 510.752,54.579 508.919,57.2457 506.5,59.5C 516.377,65.7087 519.211,74.3754 515,85.5C 511.459,92.0268 505.959,95.8602 498.5,97C 486.591,97.8207 474.757,97.6541 463,96.5C 462.333,73.5 462.333,50.5 463,27.5C 463.717,26.9558 464.217,26.2891 464.5,25.5 Z"/></g>
<g><path style="opacity:1" fill="#dceaf2" d="M 478.5,38.5 C 483.93,38.161 489.264,38.661 494.5,40C 497.099,43.9326 497.099,47.9326 494.5,52C 489.361,53.9607 484.028,54.794 478.5,54.5C 478.5,49.1667 478.5,43.8333 478.5,38.5 Z"/></g>
<g><path style="opacity:1" fill="#000825" d="M 348.5,26.5 C 349.497,45.326 349.83,64.326 349.5,83.5C 348.827,64.7645 348.161,45.9311 347.5,27C 347.728,26.6012 348.062,26.4346 348.5,26.5 Z"/></g>
<g><path style="opacity:1" fill="#dae7ef" d="M 704.5,45.5 C 707.668,52.9883 710.668,60.655 713.5,68.5C 707.833,69.8333 702.167,69.8333 696.5,68.5C 699.174,60.8099 701.841,53.1432 704.5,45.5 Z"/></g>
<g><path style="opacity:1" fill="#000f2e" d="M 295.5,26.5 C 296.167,26.5 296.5,26.8333 296.5,27.5C 296.667,46.1696 296.5,64.8363 296,83.5C 295.827,64.5933 295.327,45.76 294.5,27C 294.728,26.6012 295.062,26.4346 295.5,26.5 Z"/></g>
<g><path style="opacity:1" fill="#d9e7ef" d="M 418.5,44.5 C 421.864,52.2461 424.864,60.2461 427.5,68.5C 421.833,69.8333 416.167,69.8333 410.5,68.5C 413.372,60.5504 416.039,52.5504 418.5,44.5 Z"/></g>
<g><path style="opacity:1" fill="#00051c" d="M 282.5,26.5 C 282.354,49.1964 282.521,72.1964 283,95.5C 295.931,96.158 308.765,96.8246 321.5,97.5C 308.254,97.8227 295.087,97.4894 282,96.5C 281.17,72.9964 281.337,49.663 282.5,26.5 Z"/></g>
<g><path style="opacity:1" fill="#020b26" d="M 800.5,28.5 C 801.332,50.6629 801.832,72.9963 802,95.5C 816.598,96.159 831.098,96.8256 845.5,97.5C 830.588,97.824 815.755,97.4906 801,96.5C 800.5,73.8358 800.333,51.1691 800.5,28.5 Z"/></g>
<g><path style="opacity:1" fill="#1a3653" d="M 790.5,37.5 C 790.047,38.4584 789.381,39.2917 788.5,40C 782.509,40.4995 776.509,40.6662 770.5,40.5C 769.668,58.6621 769.168,76.9954 769,95.5C 765,96.8333 761,96.8333 757,95.5C 756.832,76.9954 756.332,58.6621 755.5,40.5C 749.588,38.5437 743.255,37.8771 736.5,38.5C 736.5,34.8333 736.5,31.1667 736.5,27.5C 748.218,27.8122 759.884,27.4789 771.5,26.5C 777.115,27.2891 782.782,27.7891 788.5,28C 789.132,31.2704 789.799,34.4371 790.5,37.5 Z"/></g>
<g><path style="opacity:1" fill="#1a3653" d="M 348.5,26.5 C 348.062,26.4346 347.728,26.6012 347.5,27C 348.161,45.9311 348.827,64.7645 349.5,83.5C 357.902,84.1798 366.402,84.8465 375,85.5C 375.789,89.0915 375.622,92.5915 374.5,96C 361.591,96.8217 348.758,96.6551 336,95.5C 335.5,72.8358 335.333,50.1691 335.5,27.5C 335.611,26.8826 335.944,26.3826 336.5,26C 340.689,25.1881 344.689,25.3547 348.5,26.5 Z"/></g>
<g><path style="opacity:1" fill="#081e3b" d="M 839.5,55.5 C 840.822,59.5664 840.822,63.7331 839.5,68C 831.841,68.4997 824.174,68.6664 816.5,68.5C 816.5,73.5 816.5,78.5 816.5,83.5C 826.172,83.3335 835.839,83.5002 845.5,84C 846.056,84.3826 846.389,84.8826 846.5,85.5C 846.664,88.1873 846.497,90.854 846,93.5C 845.782,90.5738 845.282,87.7405 844.5,85C 834.506,84.5002 824.506,84.3335 814.5,84.5C 814.192,78.5746 814.525,72.7412 815.5,67C 823.493,66.5003 831.493,66.3336 839.5,66.5C 839.5,62.8333 839.5,59.1667 839.5,55.5 Z"/></g>
<g><path style="opacity:1" fill="#dceaf1" d="M 478.5,66.5 C 484.577,66.1959 490.577,66.6959 496.5,68C 500.785,71.7279 501.618,76.2279 499,81.5C 498.097,82.7014 496.931,83.5348 495.5,84C 489.839,84.6328 484.172,85.1328 478.5,85.5C 478.5,79.1667 478.5,72.8333 478.5,66.5 Z"/></g>
<g><path style="opacity:1" fill="#000620" d="M 755.5,40.5 C 756.332,58.6621 756.832,76.9954 757,95.5C 761,96.8333 765,96.8333 769,95.5C 769.168,76.9954 769.668,58.6621 770.5,40.5C 770.667,59.1696 770.5,77.8363 770,96.5C 765.587,97.6324 761.087,97.7991 756.5,97C 755.944,96.6174 755.611,96.1174 755.5,95.5C 755.5,77.1667 755.5,58.8333 755.5,40.5 Z"/></g>
<g><path style="opacity:1" fill="#1a3653" d="M 803.5,25.5 C 816.994,26.3311 830.661,26.8311 844.5,27C 845.46,30.73 845.793,34.5633 845.5,38.5C 835.478,38.1681 825.478,38.5015 815.5,39.5C 814.717,44.4473 814.217,49.4473 814,54.5C 813.173,53.3379 812.34,52.1712 811.5,51C 812.99,49.337 813.656,47.6704 813.5,46C 812.092,45.6848 810.759,46.0181 809.5,47C 810.451,47.7175 810.617,48.5509 810,49.5C 808.684,46.972 807.517,46.972 806.5,49.5C 805.549,48.6744 804.549,48.5078 803.5,49C 804.893,51.1781 806.56,52.1781 808.5,52C 808.167,52.3333 807.833,52.6667 807.5,53C 809.604,53.4888 809.938,54.6555 808.5,56.5C 809.124,59.746 810.291,60.0793 812,57.5C 812.741,58.6405 813.575,58.6405 814.5,57.5C 815.192,58.0253 815.692,58.6919 816,59.5C 816.49,58.2068 816.657,56.8734 816.5,55.5C 824.167,55.5 831.833,55.5 839.5,55.5C 839.5,59.1667 839.5,62.8333 839.5,66.5C 831.493,66.3336 823.493,66.5003 815.5,67C 814.525,72.7412 814.192,78.5746 814.5,84.5C 824.506,84.3335 834.506,84.5002 844.5,85C 845.282,87.7405 845.782,90.5738 846,93.5C 846.497,90.854 846.664,88.1873 846.5,85.5C 847.643,88.9758 847.81,92.6425 847,96.5C 846.617,97.056 846.117,97.3893 845.5,97.5C 831.098,96.8256 816.598,96.159 802,95.5C 801.832,72.9963 801.332,50.6629 800.5,28.5C 800.5,26.5 801.5,25.5 803.5,25.5 Z"/></g>
<g><path style="opacity:1" fill="#193450" d="M 649.5,30.5 C 654.575,33.2703 657.742,37.6037 659,43.5C 661.345,55.6264 657.511,65.1264 647.5,72C 651.621,79.0736 656.121,85.9069 661,92.5C 661.982,93.7589 662.315,95.0922 662,96.5C 656.584,97.6389 651.084,97.8056 645.5,97C 640.303,89.3006 635.303,81.4673 630.5,73.5C 628.027,72.2031 625.693,72.2031 623.5,73.5C 622.671,80.6552 622.171,87.9885 622,95.5C 617.934,96.4637 613.767,96.797 609.5,96.5C 609.5,73.5 609.5,50.5 609.5,27.5C 620.505,27.3335 631.505,27.5002 642.5,28C 644.854,28.8471 647.188,29.6805 649.5,30.5 Z"/></g>
<g><path style="opacity:1" fill="#dbe9f0" d="M 623.5,39.5 C 628.93,39.161 634.264,39.661 639.5,41C 645.032,46.9642 644.698,52.6308 638.5,58C 633.511,58.4993 628.511,58.6659 623.5,58.5C 623.5,52.1667 623.5,45.8333 623.5,39.5 Z"/></g>
<g><path style="opacity:1" fill="#193350" d="M 225.5,24.5 C 247.01,21.8253 261.51,30.4919 269,50.5C 273.733,71.6796 266.566,87.1796 247.5,97C 224.95,103.277 209.117,95.7771 200,74.5C 194.54,50.4161 203.04,33.7494 225.5,24.5 Z"/></g>
<g><path style="opacity:1" fill="#dae9f1" d="M 227.5,39.5 C 239.961,37.3081 248.461,41.9747 253,53.5C 254.356,61.5285 253.356,69.1952 250,76.5C 239.936,86.6359 229.603,86.9693 219,77.5C 213.498,67.6472 213.164,57.6472 218,47.5C 220.772,44.2166 223.939,41.5499 227.5,39.5 Z"/></g>
<g><path style="opacity:1" fill="#0a172f" d="M 439.5,57.5 C 444.647,70.6055 448.98,83.9388 452.5,97.5C 447.833,97.5 443.167,97.5 438.5,97.5C 442.634,96.5151 446.968,96.1818 451.5,96.5C 447.668,83.8367 443.334,71.3367 438.5,59C 438.57,58.2352 438.903,57.7352 439.5,57.5 Z"/></g>
<g><path style="opacity:1" fill="#020920" d="M 335.5,27.5 C 335.333,50.1691 335.5,72.8358 336,95.5C 348.758,96.6551 361.591,96.8217 374.5,96C 375.622,92.5915 375.789,89.0915 375,85.5C 366.402,84.8465 357.902,84.1798 349.5,83.5C 358.418,83.1828 367.251,83.5161 376,84.5C 376.796,88.7548 376.629,92.9215 375.5,97C 361.925,97.8223 348.425,97.6557 335,96.5C 334.17,73.3297 334.337,50.3297 335.5,27.5 Z"/></g>
<g><path style="opacity:1" fill="#091f3c" d="M 750.5,142.5 C 749.523,139.713 749.19,136.713 749.5,133.5C 743.907,133.807 738.407,133.473 733,132.5C 731.333,133.5 730,134.833 729,136.5C 728.383,135.551 728.549,134.718 729.5,134C 720.173,133.5 710.839,133.334 701.5,133.5C 701.5,137.167 701.5,140.833 701.5,144.5C 711.015,144.173 720.348,144.506 729.5,145.5C 719.828,145.666 710.161,145.5 700.5,145C 699.374,141.256 699.207,137.423 700,133.5C 700.5,133 701,132.5 701.5,132C 717.5,131.333 733.5,131.333 749.5,132C 751.762,135.269 752.095,138.769 750.5,142.5 Z"/></g>
<g><path style="opacity:1" fill="#1a3552" d="M 750.5,142.5 C 739.92,157.326 729.586,172.326 719.5,187.5C 718.662,187.842 718.328,188.508 718.5,189.5C 728.659,190.33 738.992,190.83 749.5,191C 750.833,194.667 750.833,198.333 749.5,202C 732.5,202.667 715.5,202.667 698.5,202C 697.398,199.599 697.231,197.099 698,194.5C 699.777,191.941 701.277,189.274 702.5,186.5C 711.749,173.005 720.749,159.338 729.5,145.5C 720.348,144.506 711.015,144.173 701.5,144.5C 701.5,140.833 701.5,137.167 701.5,133.5C 710.839,133.334 720.173,133.5 729.5,134C 728.549,134.718 728.383,135.551 729,136.5C 730,134.833 731.333,133.5 733,132.5C 738.407,133.473 743.907,133.807 749.5,133.5C 749.19,136.713 749.523,139.713 750.5,142.5 Z"/></g>
<g><path style="opacity:1" fill="#041736" d="M 654.5,133.5 C 650.301,132.26 646.134,132.26 642,133.5C 641.167,189.496 640.667,189.496 640.5,133.5C 640.611,132.883 640.944,132.383 641.5,132C 645.5,131.333 649.5,131.333 653.5,132C 654.056,132.383 654.389,132.883 654.5,133.5 Z"/></g>
<g><path style="opacity:1" fill="#183350" d="M 223.5,130.5 C 228.511,130.334 233.511,130.501 238.5,131C 249.007,134.838 253.173,142.338 251,153.5C 249.037,159.799 245.203,164.632 239.5,168C 242.667,171.833 245.833,175.667 249,179.5C 251.211,174.836 253.044,170.002 254.5,165C 265.067,161.979 268.567,165.479 265,175.5C 263.718,180.064 261.885,184.397 259.5,188.5C 263.542,192.54 267.209,196.873 270.5,201.5C 270.291,202.086 269.957,202.586 269.5,203C 264.5,203.667 259.5,203.667 254.5,203C 252.667,201.167 250.833,199.333 249,197.5C 237.764,206.229 225.597,207.729 212.5,202C 204.375,196.64 201.542,189.14 204,179.5C 206.875,173.788 210.709,168.788 215.5,164.5C 205.398,149.769 208.065,138.436 223.5,130.5 Z"/></g>
<g><path style="opacity:1" fill="#dbe9f0" d="M 227.5,141.5 C 235.328,140.493 238.494,143.826 237,151.5C 232.436,159.657 228.436,159.323 225,150.5C 223.927,146.9 224.76,143.9 227.5,141.5 Z"/></g>
<g><path style="opacity:1" fill="#020e29" d="M 766.5,131.5 C 780.171,131.333 793.837,131.5 807.5,132C 808.823,136.6 808.823,141.1 807.5,145.5C 770.167,145.167 770.167,144.833 807.5,144.5C 807.793,140.563 807.46,136.73 806.5,133C 792.994,132.831 779.66,132.331 766.5,131.5 Z"/></g>
<g><path style="opacity:1" fill="#193451" d="M 387.5,132.5 C 397.653,131.506 407.986,131.172 418.5,131.5C 434.977,136.435 441.144,147.435 437,164.5C 434.753,170.247 430.919,174.58 425.5,177.5C 430.085,185.005 434.918,192.338 440,199.5C 440.49,200.793 440.657,202.127 440.5,203.5C 434.824,203.666 429.157,203.499 423.5,203C 418.792,195.083 413.959,187.25 409,179.5C 406.619,178.565 404.119,178.232 401.5,178.5C 400.508,186.316 400.174,194.316 400.5,202.5C 396.167,202.5 391.833,202.5 387.5,202.5C 387.519,178.861 387.519,155.527 387.5,132.5 Z"/></g>
<g><path style="opacity:1" fill="#d7e5ed" d="M 401.5,145.5 C 407.262,145.149 412.928,145.649 418.5,147C 424.21,153.445 423.543,159.112 416.5,164C 411.511,164.499 406.511,164.666 401.5,164.5C 401.5,158.167 401.5,151.833 401.5,145.5 Z"/></g>
<g><path style="opacity:1" fill="#18324f" d="M 330.5,130.5 C 354.155,127.684 368.988,137.684 375,160.5C 377.084,191.08 362.917,205.913 332.5,205C 311.153,198.514 301.653,184.014 304,161.5C 306.624,145.719 315.457,135.386 330.5,130.5 Z"/></g>
<g><path style="opacity:1" fill="#dae9f1" d="M 332.5,145.5 C 349.316,143.32 358.316,150.654 359.5,167.5C 358.417,185.532 349.084,192.699 331.5,189C 323.086,184.178 319.086,176.845 319.5,167C 319.388,157.044 323.721,149.877 332.5,145.5 Z"/></g>
<g><path style="opacity:1" fill="#fafdfd" d="M 418.5,131.5 C 407.986,131.172 397.653,131.506 387.5,132.5C 386.833,132.5 386.5,132.833 386.5,133.5C 385.668,156.33 385.168,179.33 385,202.5C 384.333,179.167 384.333,155.833 385,132.5C 385.5,132 386,131.5 386.5,131C 398.55,130.183 409.217,130.349 418.5,131.5 Z"/></g>
<g><path style="opacity:1" fill="#1b3653" d="M 766.5,131.5 C 779.66,132.331 792.994,132.831 806.5,133C 807.46,136.73 807.793,140.563 807.5,144.5C 770.167,144.833 770.167,145.167 807.5,145.5C 798.348,146.494 789.015,146.827 779.5,146.5C 779.5,151.167 779.5,155.833 779.5,160.5C 787.507,160.334 795.507,160.5 803.5,161C 804.626,164.744 804.793,168.577 804,172.5C 803.5,173 803,173.5 802.5,174C 794.841,174.5 787.174,174.666 779.5,174.5C 779.5,179.5 779.5,184.5 779.5,189.5C 788.658,190.33 797.991,190.83 807.5,191C 808.46,194.73 808.793,198.563 808.5,202.5C 793.921,202.824 779.421,202.49 765,201.5C 765.406,179.129 764.906,156.796 763.5,134.5C 763.5,132.5 764.5,131.5 766.5,131.5 Z"/></g>
<g><path style="opacity:1" fill="#17314e" d="M 543.5,131.5 C 549.176,131.334 554.843,131.501 560.5,132C 569.694,154.735 578.361,177.735 586.5,201C 586.355,201.772 586.022,202.439 585.5,203C 580.5,203.667 575.5,203.667 570.5,203C 568.74,198.555 567.073,194.055 565.5,189.5C 556.525,188.502 547.525,188.168 538.5,188.5C 537.53,193.577 535.863,198.41 533.5,203C 528.511,203.499 523.511,203.666 518.5,203.5C 526.03,179.244 534.364,155.244 543.5,131.5 Z"/></g>
<g><path style="opacity:1" fill="#dceaf1" d="M 551.5,150.5 C 554.867,158.257 557.867,166.257 560.5,174.5C 554.833,175.833 549.167,175.833 543.5,174.5C 546.775,166.675 549.442,158.675 551.5,150.5 Z"/></g>
<g><path style="opacity:1" fill="#0d203d" d="M 615.5,141.5 C 613.159,139.344 611.159,136.844 609.5,134C 605.514,133.501 601.514,133.334 597.5,133.5C 597.5,156.5 597.5,179.5 597.5,202.5C 601.767,202.797 605.934,202.464 610,201.5C 610.169,187.994 610.669,174.66 611.5,161.5C 611.667,175.171 611.5,188.837 611,202.5C 606,203.833 601,203.833 596,202.5C 595.333,179.5 595.333,156.5 596,133.5C 596.5,133 597,132.5 597.5,132C 601.5,131.333 605.5,131.333 609.5,132C 612.146,134.802 614.146,137.968 615.5,141.5 Z"/></g>
<g><path style="opacity:1" fill="#030e2a" d="M 654.5,133.5 C 655.663,156.33 655.83,179.33 655,202.5C 650.587,203.632 646.087,203.799 641.5,203C 639.561,201.568 638.228,199.735 637.5,197.5C 637.435,197.062 637.601,196.728 638,196.5C 639.141,198.609 640.641,200.442 642.5,202C 646.423,202.793 650.256,202.626 654,201.5C 654.5,178.836 654.667,156.169 654.5,133.5 Z"/></g>
<g><path style="opacity:1" fill="#142138" d="M 671.5,132.5 C 671.354,155.196 671.521,178.196 672,201.5C 676.066,202.464 680.233,202.797 684.5,202.5C 684.169,179.327 684.502,156.327 685.5,133.5C 686.663,156.33 686.83,179.33 686,202.5C 681,203.833 676,203.833 671,202.5C 670.17,178.996 670.337,155.663 671.5,132.5 Z"/></g>
<g><path style="opacity:1" fill="#1b3754" d="M 671.5,132.5 C 675.646,131.353 679.98,131.186 684.5,132C 685.056,132.383 685.389,132.883 685.5,133.5C 684.502,156.327 684.169,179.327 684.5,202.5C 680.233,202.797 676.066,202.464 672,201.5C 671.521,178.196 671.354,155.196 671.5,132.5 Z"/></g>
<g><path style="opacity:1" fill="#00041e" d="M 387.5,132.5 C 387.519,155.527 387.519,178.861 387.5,202.5C 386.502,179.673 386.169,156.673 386.5,133.5C 386.5,132.833 386.833,132.5 387.5,132.5 Z"/></g>
<g><path style="opacity:1" fill="#081b37" d="M 508.5,194.5 C 508.595,185.076 508.428,175.409 508,165.5C 499.585,164.517 491.085,164.183 482.5,164.5C 482.5,167.833 482.5,171.167 482.5,174.5C 487.214,174.353 491.881,174.686 496.5,175.5C 496.666,179.846 496.499,184.179 496,188.5C 490.084,192.631 483.918,193.298 477.5,190.5C 482.913,190.771 488.246,190.271 493.5,189C 494.464,184.934 494.797,180.767 494.5,176.5C 490.486,176.666 486.486,176.499 482.5,176C 481.536,171.934 481.203,167.767 481.5,163.5C 490.751,163.182 499.917,163.515 509,164.5C 509.807,174.577 509.64,184.577 508.5,194.5 Z"/></g>
<g><path style="opacity:1" fill="#1a3652" d="M 654.5,133.5 C 654.667,156.169 654.5,178.836 654,201.5C 650.256,202.626 646.423,202.793 642.5,202C 640.641,200.442 639.141,198.609 638,196.5C 637.601,196.728 637.435,197.062 637.5,197.5C 629.109,185.739 620.942,173.739 613,161.5C 612.31,160.262 611.81,160.262 611.5,161.5C 610.669,174.66 610.169,187.994 610,201.5C 605.934,202.464 601.767,202.797 597.5,202.5C 597.5,179.5 597.5,156.5 597.5,133.5C 601.514,133.334 605.514,133.501 609.5,134C 611.159,136.844 613.159,139.344 615.5,141.5C 623.86,152.379 631.694,163.712 639,175.5C 639.169,161.327 639.669,147.327 640.5,133.5C 640.667,189.496 641.167,189.496 642,133.5C 646.134,132.26 650.301,132.26 654.5,133.5 Z"/></g>
<g><path style="opacity:1" fill="#dae8f0" d="M 224.5,174.5 C 230.124,178.124 234.791,182.791 238.5,188.5C 234.192,192.157 229.192,193.324 223.5,192C 219.184,190.194 217.35,187.027 218,182.5C 219.305,179.039 221.471,176.372 224.5,174.5 Z"/></g>
<g><path style="opacity:1" fill="#a0b6c6" d="M 719.5,187.5 C 729.5,188.167 739.5,188.833 749.5,189.5C 739.167,189.5 728.833,189.5 718.5,189.5C 718.328,188.508 718.662,187.842 719.5,187.5 Z"/></g>
<g><path style="opacity:1" fill="#04091f" d="M 401.5,178.5 C 401.5,186.833 401.5,195.167 401.5,203.5C 396.637,203.819 391.97,203.486 387.5,202.5C 391.833,202.5 396.167,202.5 400.5,202.5C 400.174,194.316 400.508,186.316 401.5,178.5 Z"/></g>
<g><path style="opacity:1" fill="#193451" d="M 477.5,190.5 C 483.918,193.298 490.084,192.631 496,188.5C 496.499,184.179 496.666,179.846 496.5,175.5C 491.881,174.686 487.214,174.353 482.5,174.5C 482.5,171.167 482.5,167.833 482.5,164.5C 491.085,164.183 499.585,164.517 508,165.5C 508.428,175.409 508.595,185.076 508.5,194.5C 493.111,207.722 476.777,208.889 459.5,198C 448.957,187.357 444.79,174.524 447,159.5C 455.274,133.619 472.441,124.786 498.5,133C 507.466,135.534 508.8,140.201 502.5,147C 498.446,146.991 494.446,146.324 490.5,145C 476.116,141.938 466.949,147.438 463,161.5C 460.975,174.783 465.808,184.45 477.5,190.5 Z"/></g>
<g><path style="opacity:1" fill="#02081e" d="M 702.5,186.5 C 701.277,189.274 699.777,191.941 698,194.5C 697.231,197.099 697.398,199.599 698.5,202C 715.5,202.667 732.5,202.667 749.5,202C 750.833,198.333 750.833,194.667 749.5,191C 738.992,190.83 728.659,190.33 718.5,189.5C 728.833,189.5 739.167,189.5 749.5,189.5C 750.117,189.611 750.617,189.944 751,190.5C 751.796,194.755 751.629,198.921 750.5,203C 732.833,203.667 715.167,203.667 697.5,203C 695.117,196.228 696.783,190.728 702.5,186.5 Z"/></g>
<g><path style="opacity:1" fill="#09152c" d="M 763.5,134.5 C 764.906,156.796 765.406,179.129 765,201.5C 779.421,202.49 793.921,202.824 808.5,202.5C 808.793,198.563 808.46,194.73 807.5,191C 797.991,190.83 788.658,190.33 779.5,189.5C 789.172,189.334 798.839,189.5 808.5,190C 810.774,193.918 811.107,198.085 809.5,202.5C 794.27,203.823 779.103,203.823 764,202.5C 763.5,179.836 763.333,157.169 763.5,134.5 Z"/></g>
<g><path style="opacity:1" fill="#7099b3" d="M 124.5,267.5 C 374.167,267.333 623.834,267.5 873.5,268C 876.445,268.139 878.779,269.306 880.5,271.5C 877.951,270.491 875.285,269.658 872.5,269C 623,268.833 373.666,268.333 124.5,267.5 Z"/></g>
<g><path style="opacity:1" fill="#8bacc2" d="M 124.5,267.5 C 373.666,268.333 623,268.833 872.5,269C 875.285,269.658 877.951,270.491 880.5,271.5C 885.287,274.481 888.454,278.814 890,284.5C 890.5,330.832 890.667,377.165 890.5,423.5C 878.858,424.824 868.524,429.158 859.5,436.5C 859.667,391.832 859.5,347.165 859,302.5C 858.292,301.619 857.458,300.953 856.5,300.5C 617.334,299.334 378,299.167 138.5,300C 136.574,300.422 135.574,301.589 135.5,303.5C 134.504,316.99 134.171,330.656 134.5,344.5C 123.833,344.5 113.167,344.5 102.5,344.5C 102.333,325.83 102.5,307.164 103,288.5C 106.091,277.241 113.258,270.241 124.5,267.5 Z"/></g>
<g><path style="opacity:1" fill="#e4e2e1" d="M 856.5,300.5 C 617,301.333 377.334,301.833 137.5,302C 136.956,302.717 136.289,303.217 135.5,303.5C 135.574,301.589 136.574,300.422 138.5,300C 378,299.167 617.334,299.334 856.5,300.5 Z"/></g>
<g><path style="opacity:1" fill="#dfdfdf" d="M 856.5,300.5 C 857.458,300.953 858.292,301.619 859,302.5C 859.5,347.165 859.667,391.832 859.5,436.5C 837.435,458.429 834.602,482.762 851,509.5C 854.371,512.703 857.538,516.036 860.5,519.5C 860.22,535.501 859.887,551.501 859.5,567.5C 850.211,569.316 841.878,573.149 834.5,579C 831.594,582.311 829.927,586.144 829.5,590.5C 826.262,593.964 823.762,597.964 822,602.5C 820.174,609.778 818.674,617.111 817.5,624.5C 817.589,594.018 817.422,563.351 817,532.5C 816.215,530.714 815.049,529.214 813.5,528C 765.833,527.333 718.167,527.333 670.5,528C 669.333,528.5 668.5,529.333 668,530.5C 667.333,576.5 667.333,622.5 668,668.5C 668.374,669.416 668.874,670.25 669.5,671C 693.248,672.157 717.081,672.657 741,672.5C 764.167,672.167 787.333,671.833 810.5,671.5C 810.855,670.478 811.522,669.811 812.5,669.5C 812.833,671.5 813.167,673.5 813.5,675.5C 815.068,690.232 823.068,699.065 837.5,702C 843.87,702.706 850.203,702.539 856.5,701.5C 858.274,704.926 859.274,708.593 859.5,712.5C 860.597,716.89 860.597,721.223 859.5,725.5C 847.842,729.664 837.842,736.33 829.5,745.5C 785.095,745.172 740.761,745.506 696.5,746.5C 680.597,721.394 657.93,711.894 628.5,718C 614.163,722.195 602.829,730.362 594.5,742.5C 593.922,741.453 593.256,741.62 592.5,743C 524.5,743.333 456.5,743.667 388.5,744C 456.335,744.167 524.001,744.667 591.5,745.5C 523.167,745.5 454.833,745.5 386.5,745.5C 388.276,741.436 387.776,737.769 385,734.5C 384.667,732.167 384.333,729.833 384,727.5C 383.184,726.177 382.017,725.511 380.5,725.5C 379.833,725.167 379.167,724.833 378.5,724.5C 379.931,720.081 379.764,715.748 378,711.5C 375.458,709.162 372.625,708.828 369.5,710.5C 369.5,709.833 369.167,709.5 368.5,709.5C 367.086,707.946 365.419,706.612 363.5,705.5C 368.854,699.479 374.521,693.812 380.5,688.5C 380.334,696.507 380.5,704.507 381,712.5C 382.733,714.602 384.733,714.935 387,713.5C 387.5,679.835 387.667,646.168 387.5,612.5C 389.144,610.519 390.81,608.519 392.5,606.5C 391.288,604.077 389.288,603.077 386.5,603.5C 387.496,541.905 387.829,480.238 387.5,418.5C 385.167,418.5 382.833,418.5 380.5,418.5C 380.987,481.333 381.654,543.999 382.5,606.5C 380.539,608.292 379.205,610.458 378.5,613C 378.278,615.275 379.278,616.441 381.5,616.5C 381.5,636.167 381.5,655.833 381.5,675.5C 379.801,675.34 378.134,675.506 376.5,676C 358.039,689.461 341.872,705.294 328,723.5C 325.041,730.893 322.207,738.227 319.5,745.5C 285.833,745.5 252.167,745.5 218.5,745.5C 211.258,734.211 202.925,723.711 193.5,714C 186.038,707.935 177.705,703.435 168.5,700.5C 168.5,699.833 168.5,699.167 168.5,698.5C 167.539,691.381 169.539,685.381 174.5,680.5C 180.509,680.666 186.509,680.499 192.5,680C 204.723,676.587 210.723,668.42 210.5,655.5C 210.5,653.5 210.5,651.5 210.5,649.5C 211.331,645.187 212.164,640.853 213,636.5C 215.635,634.074 218.801,632.741 222.5,632.5C 224.974,628.988 225.141,625.321 223,621.5C 218.897,616.295 215.563,610.628 213,604.5C 211.66,593.116 209.994,581.783 208,570.5C 207.764,568.881 206.931,567.881 205.5,567.5C 213.195,559.715 215.029,550.715 211,540.5C 207.74,537.178 203.74,535.512 199,535.5C 194.246,536.73 189.413,537.397 184.5,537.5C 167.58,534.597 150.58,533.93 133.5,535.5C 134.155,516.069 134.822,496.735 135.5,477.5C 139.998,481.83 144.665,485.997 149.5,490C 152.099,490.769 154.599,490.602 157,489.5C 158.289,478.597 158.956,467.597 159,456.5C 177.178,444.32 186.344,427.153 186.5,405C 183.95,371.961 166.617,351.794 134.5,344.5C 134.171,330.656 134.504,316.99 135.5,303.5C 136.289,303.217 136.956,302.717 137.5,302C 377.334,301.833 617,301.333 856.5,300.5 Z"/></g>
<g><path style="opacity:1" fill="#d4e7fd" d="M 578.5,339.5 C 529.832,339.333 481.166,339.5 432.5,340C 431.058,340.377 430.058,341.21 429.5,342.5C 429.167,342.5 428.833,342.5 428.5,342.5C 428.574,340.589 429.574,339.422 431.5,339C 480.668,338.168 529.668,338.335 578.5,339.5 Z"/></g>
<g><path style="opacity:1" fill="#fbc667" d="M 578.5,339.5 C 579.5,339.833 580.167,340.5 580.5,341.5C 531.166,341.333 481.832,341.5 432.5,342C 431.584,342.374 430.75,342.874 430,343.5C 429.601,343.272 429.435,342.938 429.5,342.5C 430.058,341.21 431.058,340.377 432.5,340C 481.166,339.5 529.832,339.333 578.5,339.5 Z"/></g>
<g><path style="opacity:1" fill="#fef7ed" d="M 670.5,341.5 C 718.168,341.333 765.834,341.5 813.5,342C 814.333,342.833 815.167,343.667 816,344.5C 816.667,390.833 816.667,437.167 816,483.5C 815.097,484.701 813.931,485.535 812.5,486C 765.167,486.667 717.833,486.667 670.5,486C 669.667,485.167 668.833,484.333 668,483.5C 667.333,437.167 667.333,390.833 668,344.5C 669.045,343.627 669.878,342.627 670.5,341.5 Z"/></g>
<g><path style="opacity:1" fill="#192941" d="M 102.5,344.5 C 113.167,344.5 123.833,344.5 134.5,344.5C 121.006,345.331 107.339,345.831 93.5,346C 84.5668,346.377 75.9001,348.044 67.5,351C 68.3992,352.236 69.5659,353.07 71,353.5C 76.9569,351.254 83.1236,350.087 89.5,350C 105.213,349.18 119.547,349.347 132.5,350.5C 115.844,351.187 99.1778,351.687 82.5,352C 74.1878,353.159 66.5212,355.992 59.5,360.5C 59.0618,360.565 58.7284,360.399 58.5,360C 60.7173,358.732 62.7173,357.232 64.5,355.5C 63.6721,354.585 62.6721,353.919 61.5,353.5C 58.1112,355.523 54.7779,357.523 51.5,359.5C 53.0038,357.164 55.0038,355.331 57.5,354C 71.5899,346.761 86.5899,343.594 102.5,344.5 Z"/></g>
<g><path style="opacity:1" fill="#b9bec3" d="M 382.5,344.5 C 384.39,344.297 385.89,344.963 387,346.5C 387.5,367.497 387.667,388.497 387.5,409.5C 385.5,409.5 383.5,409.5 381.5,409.5C 381.178,387.758 381.512,366.091 382.5,344.5 Z"/></g>
<g><path style="opacity:1" fill="#d5d6d6" d="M 694.5,373.5 C 725.835,373.333 757.168,373.5 788.5,374C 792.085,376.528 792.418,379.528 789.5,383C 757.833,383.667 726.167,383.667 694.5,383C 690.581,379.84 690.581,376.673 694.5,373.5 Z"/></g>
<g><path style="opacity:1" fill="#fdca70" d="M 580.5,341.5 C 581.75,341.577 582.583,342.244 583,343.5C 583.99,390.583 583.656,437.583 582,484.5C 581.5,485 581,485.5 580.5,486C 530.833,486.667 481.167,486.667 431.5,486C 430.667,485.167 429.833,484.333 429,483.5C 428.5,436.501 428.333,389.501 428.5,342.5C 428.833,342.5 429.167,342.5 429.5,342.5C 429.435,342.938 429.601,343.272 430,343.5C 430.75,342.874 431.584,342.374 432.5,342C 481.832,341.5 531.166,341.333 580.5,341.5 Z"/></g>
<g><path style="opacity:1" fill="#dfa84e" d="M 454.5,373.5 C 488.168,373.333 521.835,373.5 555.5,374C 558.418,377.472 558.085,380.472 554.5,383C 521.5,383.667 488.5,383.667 455.5,383C 451.846,380.209 451.513,377.043 454.5,373.5 Z"/></g>
<g><path style="opacity:1" fill="#d4d5d5" d="M 693.5,407.5 C 725.502,407.333 757.502,407.5 789.5,408C 791.418,409.77 791.918,411.937 791,414.5C 790.25,415.126 789.416,415.626 788.5,416C 757.167,416.667 725.833,416.667 694.5,416C 690.853,413.558 690.519,410.724 693.5,407.5 Z"/></g>
<g><path style="opacity:1" fill="#142e48" d="M 134.5,344.5 C 166.617,351.794 183.95,371.961 186.5,405C 186.344,427.153 177.178,444.32 159,456.5C 158.956,467.597 158.289,478.597 157,489.5C 154.599,490.602 152.099,490.769 149.5,490C 144.665,485.997 139.998,481.83 135.5,477.5C 131.361,473.532 127.027,469.699 122.5,466C 116.175,465.5 109.842,465.334 103.5,465.5C 94.7811,465.797 86.1144,465.297 77.5,464C 57.9438,459.108 43.7771,447.608 35,429.5C 27.6721,409.335 29.3388,390.002 40,371.5C 42.7224,366.349 46.5557,362.349 51.5,359.5C 54.7779,357.523 58.1112,355.523 61.5,353.5C 62.6721,353.919 63.6721,354.585 64.5,355.5C 62.7173,357.232 60.7173,358.732 58.5,360C 58.7284,360.399 59.0618,360.565 59.5,360.5C 33.7459,382.463 29.5793,408.13 47,437.5C 55.1468,447.157 65.3135,453.657 77.5,457C 93.1131,458.271 108.78,458.937 124.5,459C 133.964,466.796 143.131,474.962 152,483.5C 151.388,473.912 151.388,464.245 152,454.5C 152.465,453.069 153.299,451.903 154.5,451C 174.131,438.223 182.297,420.056 179,396.5C 173.49,370.822 157.99,355.489 132.5,350.5C 119.547,349.347 105.213,349.18 89.5,350C 83.1236,350.087 76.9569,351.254 71,353.5C 69.5659,353.07 68.3992,352.236 67.5,351C 75.9001,348.044 84.5668,346.377 93.5,346C 107.339,345.831 121.006,345.331 134.5,344.5 Z"/></g>
<g><path style="opacity:1" fill="#fdf7ed" d="M 132.5,350.5 C 157.99,355.489 173.49,370.822 179,396.5C 182.297,420.056 174.131,438.223 154.5,451C 153.299,451.903 152.465,453.069 152,454.5C 151.388,464.245 151.388,473.912 152,483.5C 143.131,474.962 133.964,466.796 124.5,459C 108.78,458.937 93.1131,458.271 77.5,457C 65.3135,453.657 55.1468,447.157 47,437.5C 29.5793,408.13 33.7459,382.463 59.5,360.5C 66.5212,355.992 74.1878,353.159 82.5,352C 99.1778,351.687 115.844,351.187 132.5,350.5 Z"/></g>
<g><path style="opacity:1" fill="#36607f" d="M 71.5,398.5 C 80.1584,397.327 83.9918,400.994 83,409.5C 79.1081,415.259 74.4414,415.926 69,411.5C 66.4582,406.438 67.2915,402.105 71.5,398.5 Z"/></g>
<g><path style="opacity:1" fill="#366180" d="M 102.5,398.5 C 106.839,397.846 110.673,398.846 114,401.5C 116.705,408.752 114.205,413.085 106.5,414.5C 97.6887,411.121 96.3554,405.787 102.5,398.5 Z"/></g>
<g><path style="opacity:1" fill="#376280" d="M 133.5,398.5 C 140.939,396.431 145.272,399.098 146.5,406.5C 145.592,412.959 141.926,415.459 135.5,414C 128.311,409.729 127.644,404.562 133.5,398.5 Z"/></g>
<g><path style="opacity:1" fill="#dfa74d" d="M 456.5,407.5 C 489.502,407.333 522.502,407.5 555.5,408C 558.167,411 558.167,414 555.5,417C 522.167,417.667 488.833,417.667 455.5,417C 451.26,413.084 451.594,409.917 456.5,407.5 Z"/></g>
<g><path style="opacity:1" fill="#457b9f" d="M 257.5,367.5 C 280.229,364.757 295.396,374.09 303,395.5C 306.059,427.441 291.559,442.941 259.5,442C 245.277,438.777 235.777,430.277 231,416.5C 226.24,392.681 235.073,376.348 257.5,367.5 Z"/></g>
<g><path style="opacity:1" fill="#1c4260" d="M 376.5,410.5 C 381.844,410.334 387.177,410.501 392.5,411C 395.167,413 395.167,415 392.5,417C 386.5,417.667 380.5,417.667 374.5,417C 372.933,414.094 373.6,411.928 376.5,410.5 Z"/></g>
<g><path style="opacity:1" fill="#173e5b" d="M 405.5,414.5 C 409.741,414.185 413.574,415.185 417,417.5C 418.08,420.237 417.246,421.904 414.5,422.5C 410.5,421.958 407.167,420.291 404.5,417.5C 405.127,416.583 405.461,415.583 405.5,414.5 Z"/></g>
<g><path style="opacity:1" fill="#142d47" d="M 890.5,423.5 C 904.504,423.333 918.504,423.5 932.5,424C 937.301,424.378 941.968,425.378 946.5,427C 974.914,442.683 984.414,466.183 975,497.5C 967.079,517.082 952.579,527.916 931.5,530C 918.833,530.333 906.167,530.667 893.5,531C 891.959,532.371 890.625,533.871 889.5,535.5C 883.039,540.791 876.705,546.291 870.5,552C 867.044,553.123 864.21,552.29 862,549.5C 861.83,539.325 861.33,529.325 860.5,519.5C 857.538,516.036 854.371,512.703 851,509.5C 834.602,482.762 837.435,458.429 859.5,436.5C 868.524,429.158 878.858,424.824 890.5,423.5 Z"/></g>
<g><path style="opacity:1" fill="#19415e" d="M 358.5,415.5 C 362,415.495 363.5,417.162 363,420.5C 359.167,423.667 355.333,426.833 351.5,430C 347.333,431.167 345.833,429.667 347,425.5C 351.026,422.302 354.859,418.968 358.5,415.5 Z"/></g>
<g><path style="opacity:1" fill="#b9bec3" d="M 623.5,344.5 C 625.39,344.297 626.89,344.963 628,346.5C 628.667,457.167 628.667,567.833 628,678.5C 626.33,680.698 624.33,681.032 622,679.5C 621.333,568.5 621.333,457.5 622,346.5C 622.717,345.956 623.217,345.289 623.5,344.5 Z"/></g>
<g><path style="opacity:1" fill="#010a24" d="M 934.5,430.5 C 932.833,430.5 931.167,430.5 929.5,430.5C 923.013,429.672 916.346,429.172 909.5,429C 918.553,428.154 927.553,428.487 936.5,430C 935.906,430.464 935.239,430.631 934.5,430.5 Z"/></g>
<g><path style="opacity:1" fill="#fdf7ed" d="M 929.5,430.5 C 931.167,430.5 932.833,430.5 934.5,430.5C 958.198,436.509 970.531,451.843 971.5,476.5C 971.721,498.901 961.387,514.067 940.5,522C 924.545,523.255 908.545,523.922 892.5,524C 884.037,530.794 875.87,537.961 868,545.5C 867.896,535.441 867.229,525.441 866,515.5C 845.983,497.595 841.983,476.595 854,452.5C 860.75,442.38 869.917,435.547 881.5,432C 897.457,430.596 913.457,430.096 929.5,430.5 Z"/></g>
<g><path style="opacity:1" fill="#d4d5d5" d="M 693.5,440.5 C 714.836,440.333 736.169,440.5 757.5,441C 760.167,443.667 760.167,446.333 757.5,449C 736.5,449.667 715.5,449.667 694.5,449C 690.874,446.603 690.54,443.769 693.5,440.5 Z"/></g>
<g><path style="opacity:1" fill="#18405e" d="M 338.5,442.5 C 340.948,442.085 342.281,443.085 342.5,445.5C 341.857,448.884 341.023,452.217 340,455.5C 336.889,457.272 335.056,456.439 334.5,453C 334.852,449.062 336.186,445.562 338.5,442.5 Z"/></g>
<g><path style="opacity:1" fill="#c8c9ca" d="M 876.5,460.5 C 899.169,460.333 921.836,460.5 944.5,461C 946.706,463.209 947.04,465.709 945.5,468.5C 922.507,469.666 899.507,469.833 876.5,469C 873.899,466.17 873.899,463.337 876.5,460.5 Z"/></g>
<g><path style="opacity:1" fill="#467c9f" d="M 257.5,451.5 C 296.013,449.155 322.18,465.822 336,501.5C 336.978,504.669 336.478,507.503 334.5,510C 289.5,510.667 244.5,510.667 199.5,510C 198.02,508.701 197.354,507.034 197.5,505C 203.334,480.828 218,464.495 241.5,456C 246.874,454.16 252.207,452.66 257.5,451.5 Z"/></g>
<g><path style="opacity:1" fill="#c7c9ca" d="M 876.5,483.5 C 899.169,483.333 921.836,483.5 944.5,484C 947.167,486.667 947.167,489.333 944.5,492C 921.833,492.667 899.167,492.667 876.5,492C 873.899,489.17 873.899,486.337 876.5,483.5 Z"/></g>
<g><path style="opacity:1" fill="#173c5a" d="M 504.5,495.5 C 505.822,495.33 506.989,495.663 508,496.5C 508.667,500.5 508.667,504.5 508,508.5C 506.062,509.86 504.396,509.527 503,507.5C 501.994,503.198 502.494,499.198 504.5,495.5 Z"/></g>
<g><path style="opacity:1" fill="#8cadc3" d="M 103.5,465.5 C 109.842,465.334 116.175,465.5 122.5,466C 127.027,469.699 131.361,473.532 135.5,477.5C 134.822,496.735 134.155,516.069 133.5,535.5C 126.095,537.531 119.095,540.698 112.5,545C 108.291,549.601 105.291,554.768 103.5,560.5C 102.167,528.833 102.167,497.167 103.5,465.5 Z"/></g>
<g><path style="opacity:1" fill="#0f3356" d="M 507.5,526.5 C 506.167,527.833 504.833,527.833 503.5,526.5C 503.337,524.143 503.503,521.81 504,519.5C 505,518.167 506,518.167 507,519.5C 507.497,521.81 507.663,524.143 507.5,526.5 Z"/></g>
<g><path style="opacity:1" fill="#fdf7ed" d="M 817.5,624.5 C 814.81,632.694 809.977,639.361 803,644.5C 800.585,651.296 803.085,655.296 810.5,656.5C 811.538,660.769 812.205,665.102 812.5,669.5C 811.522,669.811 810.855,670.478 810.5,671.5C 787.333,671.833 764.167,672.167 741,672.5C 717.081,672.657 693.248,672.157 669.5,671C 668.874,670.25 668.374,669.416 668,668.5C 667.333,622.5 667.333,576.5 668,530.5C 668.5,529.333 669.333,528.5 670.5,528C 718.167,527.333 765.833,527.333 813.5,528C 815.049,529.214 816.215,530.714 817,532.5C 817.422,563.351 817.589,594.018 817.5,624.5 Z"/></g>
<g><path style="opacity:1" fill="#7996aa" d="M 238.5,551.5 C 270.168,551.333 301.835,551.5 333.5,552C 336.418,555.472 336.085,558.472 332.5,561C 301.167,561.667 269.833,561.667 238.5,561C 234.581,557.84 234.581,554.673 238.5,551.5 Z"/></g>
<g><path style="opacity:1" fill="#8eafc4" d="M 860.5,519.5 C 861.33,529.325 861.83,539.325 862,549.5C 864.21,552.29 867.044,553.123 870.5,552C 876.705,546.291 883.039,540.791 889.5,535.5C 891.473,544.775 892.14,554.442 891.5,564.5C 880.654,564.097 869.987,565.097 859.5,567.5C 859.887,551.501 860.22,535.501 860.5,519.5 Z"/></g>
<g><path style="opacity:1" fill="#b8bdc2" d="M 386.5,603.5 C 385.738,605.262 384.404,606.262 382.5,606.5C 381.654,543.999 380.987,481.333 380.5,418.5C 382.833,418.5 385.167,418.5 387.5,418.5C 387.829,480.238 387.496,541.905 386.5,603.5 Z"/></g>
<g><path style="opacity:1" fill="#d5d6d6" d="M 694.5,558.5 C 726.168,558.333 757.835,558.5 789.5,559C 794.132,563.234 793.465,566.234 787.5,568C 756.833,568.667 726.167,568.667 695.5,568C 691.968,565.172 691.634,562.005 694.5,558.5 Z"/></g>
<g><path style="opacity:1" fill="#0e243a" d="M 205.5,567.5 C 195.05,572.247 184.05,575.08 172.5,576C 174.497,585.861 173.33,595.361 169,604.5C 166.405,608.273 162.905,610.606 158.5,611.5C 157.833,611.167 157.167,610.833 156.5,610.5C 153.239,600.017 146.573,597.183 136.5,602C 128.244,608.725 126.411,616.892 131,626.5C 133.028,629.692 135.528,632.359 138.5,634.5C 138.5,635.167 138.5,635.833 138.5,636.5C 135.926,643.583 131.593,649.416 125.5,654C 123.091,655.707 120.425,656.54 117.5,656.5C 112.584,650.978 107.917,645.311 103.5,639.5C 94.5769,624.228 89.5769,607.728 88.5,590C 87.9263,577.158 92.9263,567.324 103.5,560.5C 105.291,554.768 108.291,549.601 112.5,545C 119.095,540.698 126.095,537.531 133.5,535.5C 150.58,533.93 167.58,534.597 184.5,537.5C 189.413,537.397 194.246,536.73 199,535.5C 203.74,535.512 207.74,537.178 211,540.5C 215.029,550.715 213.195,559.715 205.5,567.5 Z"/></g>
<g><path style="opacity:1" fill="#7794a9" d="M 333.5,593.5 C 302.003,592.668 270.336,592.168 238.5,592C 236.166,590.158 235.832,587.991 237.5,585.5C 269.664,584.336 301.997,584.169 334.5,585C 337.249,588.238 336.915,591.071 333.5,593.5 Z"/></g>
<g><path style="opacity:1" fill="#567d97" d="M 237.5,585.5 C 235.832,587.991 236.166,590.158 238.5,592C 270.336,592.168 302.003,592.668 333.5,593.5C 301.498,593.667 269.498,593.5 237.5,593C 234.86,590.379 234.86,587.879 237.5,585.5 Z"/></g>
<g><path style="opacity:1" fill="#d4d5d5" d="M 694.5,590.5 C 717.836,590.333 741.169,590.5 764.5,591C 767.683,593.479 768.016,596.146 765.5,599C 741.5,599.667 717.5,599.667 693.5,599C 691.079,595.952 691.412,593.119 694.5,590.5 Z"/></g>
<g><path style="opacity:1" fill="#1b4260" d="M 409.5,592.5 C 411.527,592.338 413.527,592.505 415.5,593C 416.554,594.388 416.72,595.888 416,597.5C 411.496,599.92 406.663,600.92 401.5,600.5C 401.343,599.127 401.51,597.793 402,596.5C 404.417,594.872 406.917,593.539 409.5,592.5 Z"/></g>
<g><path style="opacity:1" fill="#fcca70" d="M 503.5,526.5 C 504.833,527.833 506.167,527.833 507.5,526.5C 531.502,526.333 555.502,526.5 579.5,527C 580.416,527.374 581.25,527.874 582,528.5C 583.157,552.248 583.657,576.081 583.5,600C 583.5,623.336 583.167,646.502 582.5,669.5C 582.667,625.499 582.5,581.499 582,537.5C 581.831,581.738 581.331,625.904 580.5,670C 530.338,671.496 480.338,671.996 430.5,671.5C 429.778,671.082 429.278,670.416 429,669.5C 428.828,625.125 428.328,580.792 427.5,536.5C 427.741,532.801 429.074,529.635 431.5,527C 455.498,526.5 479.498,526.333 503.5,526.5 Z"/></g>
<g><path style="opacity:1" fill="#dca34b" d="M 453.5,592.5 C 477.502,592.333 501.502,592.5 525.5,593C 528.167,595.667 528.167,598.333 525.5,601C 501.833,601.667 478.167,601.667 454.5,601C 452.265,598.415 451.931,595.582 453.5,592.5 Z"/></g>
<g><path style="opacity:1" fill="#dca34a" d="M 454.5,560.5 C 488.502,560.333 522.502,560.5 556.5,561C 558.013,563.916 557.68,566.582 555.5,569C 521.833,569.667 488.167,569.667 454.5,569C 451.899,566.17 451.899,563.337 454.5,560.5 Z"/></g>
<g><path style="opacity:1" fill="#183f5c" d="M 386.5,603.5 C 389.288,603.077 391.288,604.077 392.5,606.5C 390.81,608.519 389.144,610.519 387.5,612.5C 385.246,613.415 383.246,614.748 381.5,616.5C 379.278,616.441 378.278,615.275 378.5,613C 379.205,610.458 380.539,608.292 382.5,606.5C 384.404,606.262 385.738,605.262 386.5,603.5 Z"/></g>
<g><path style="opacity:1" fill="#0e243a" d="M 891.5,564.5 C 924.313,570.482 941.813,590.149 944,623.5C 972.882,631.174 987.382,650.174 987.5,680.5C 986.003,692.466 985.503,704.466 986,716.5C 986.806,719.446 988.139,722.112 990,724.5C 994.931,728.047 998.098,732.714 999.5,738.5C 997.579,750.325 990.579,756.991 978.5,758.5C 968.595,744.599 955.929,733.932 940.5,726.5C 937.762,720.145 936.429,713.478 936.5,706.5C 938.675,693.126 941.175,679.793 944,666.5C 944.81,658.701 944.144,651.035 942,643.5C 936.654,661.033 927.154,675.867 913.5,688C 912.255,688.791 910.922,689.291 909.5,689.5C 900.125,683.804 893.791,675.804 890.5,665.5C 890.5,664.5 890.5,663.5 890.5,662.5C 900.553,655.761 903.719,646.761 900,635.5C 895.189,629.563 889.022,627.396 881.5,629C 876.935,631.056 874.602,634.556 874.5,639.5C 861.13,636.221 849.964,629.221 841,618.5C 834.137,610.437 830.304,601.104 829.5,590.5C 829.927,586.144 831.594,582.311 834.5,579C 841.878,573.149 850.211,569.316 859.5,567.5C 869.987,565.097 880.654,564.097 891.5,564.5 Z"/></g>
<g><path style="opacity:1" fill="#d4d5d5" d="M 693.5,623.5 C 717.502,623.333 741.502,623.5 765.5,624C 767.013,626.916 766.68,629.582 764.5,632C 741.167,632.667 717.833,632.667 694.5,632C 690.986,629.468 690.653,626.635 693.5,623.5 Z"/></g>
<g><path style="opacity:1" fill="#dda54c" d="M 455.5,623.5 C 472.503,623.333 489.503,623.5 506.5,624C 509.932,626.367 510.265,629.034 507.5,632C 489.491,632.833 471.491,632.666 453.5,631.5C 451.971,628.282 452.638,625.615 455.5,623.5 Z"/></g>
<g><path style="opacity:1" fill="#173d5a" d="M 367.5,623.5 C 371.677,622.842 373.177,624.508 372,628.5C 369.665,631.166 367.831,634.166 366.5,637.5C 361.574,640.752 359.741,639.419 361,633.5C 362.996,630.014 365.163,626.681 367.5,623.5 Z"/></g>
<g><path style="opacity:1" fill="#c3572f" d="M 138.5,634.5 C 143.812,635.109 149.146,635.609 154.5,636C 149.254,639.083 143.921,639.25 138.5,636.5C 138.5,635.833 138.5,635.167 138.5,634.5 Z"/></g>
<g><path style="opacity:1" fill="#f29d6b" d="M 205.5,567.5 C 206.931,567.881 207.764,568.881 208,570.5C 209.994,581.783 211.66,593.116 213,604.5C 215.563,610.628 218.897,616.295 223,621.5C 225.141,625.321 224.974,628.988 222.5,632.5C 218.801,632.741 215.635,634.074 213,636.5C 212.164,640.853 211.331,645.187 210.5,649.5C 206.154,649.334 201.821,649.501 197.5,650C 196.167,651.667 196.167,653.333 197.5,655C 201.821,655.499 206.154,655.666 210.5,655.5C 210.723,668.42 204.723,676.587 192.5,680C 186.509,680.499 180.509,680.666 174.5,680.5C 170.568,678.696 166.568,677.196 162.5,676C 163.396,680.352 164.896,684.518 167,688.5C 167.179,692.025 167.679,695.359 168.5,698.5C 168.5,699.167 168.5,699.833 168.5,700.5C 167.179,704.321 164.512,706.488 160.5,707C 147.189,707.507 134.523,704.84 122.5,699C 117.76,696.64 113.426,693.807 109.5,690.5C 111.023,678.885 113.689,667.552 117.5,656.5C 120.425,656.54 123.091,655.707 125.5,654C 131.593,649.416 135.926,643.583 138.5,636.5C 143.921,639.25 149.254,639.083 154.5,636C 149.146,635.609 143.812,635.109 138.5,634.5C 135.528,632.359 133.028,629.692 131,626.5C 126.411,616.892 128.244,608.725 136.5,602C 146.573,597.183 153.239,600.017 156.5,610.5C 157.167,610.833 157.833,611.167 158.5,611.5C 162.905,610.606 166.405,608.273 169,604.5C 173.33,595.361 174.497,585.861 172.5,576C 184.05,575.08 195.05,572.247 205.5,567.5 Z"/></g>
<g><path style="opacity:1" fill="#13243d" d="M 200.5,599.5 C 203.954,599.957 205.621,601.957 205.5,605.5C 205.165,611.36 202.332,613.36 197,611.5C 195.593,606.643 196.76,602.643 200.5,599.5 Z"/></g>
<g><path style="opacity:1" fill="#90351b" d="M 210.5,649.5 C 210.5,651.5 210.5,653.5 210.5,655.5C 206.154,655.666 201.821,655.499 197.5,655C 196.167,653.333 196.167,651.667 197.5,650C 201.821,649.501 206.154,649.334 210.5,649.5 Z"/></g>
<g><path style="opacity:1" fill="#183f5c" d="M 354.5,649.5 C 357.233,649.196 358.899,650.363 359.5,653C 358.464,655.774 357.631,658.607 357,661.5C 353.474,664.545 351.64,663.711 351.5,659C 351.806,655.585 352.806,652.418 354.5,649.5 Z"/></g>
<g><path style="opacity:1" fill="#b8bdc3" d="M 387.5,612.5 C 387.667,646.168 387.5,679.835 387,713.5C 384.733,714.935 382.733,714.602 381,712.5C 380.5,704.507 380.334,696.507 380.5,688.5C 382.219,686.089 383.552,683.423 384.5,680.5C 383.872,678.555 382.872,676.888 381.5,675.5C 381.5,655.833 381.5,636.167 381.5,616.5C 383.246,614.748 385.246,613.415 387.5,612.5 Z"/></g>
<g><path style="opacity:1" fill="#c7562c" d="M 890.5,662.5 C 890.5,663.5 890.5,664.5 890.5,665.5C 886.089,666.34 882.423,665.173 879.5,662C 881.258,662.344 883.091,662.844 885,663.5C 886.825,663.057 888.658,662.723 890.5,662.5 Z"/></g>
<g><path style="opacity:1" fill="#8aaec4" d="M 103.5,639.5 C 107.917,645.311 112.584,650.978 117.5,656.5C 113.689,667.552 111.023,678.885 109.5,690.5C 107.5,691.167 105.5,691.833 103.5,692.5C 102.176,674.736 102.176,657.069 103.5,639.5 Z"/></g>
<g><path style="opacity:1" fill="#fec04f" d="M 582.5,669.5 C 582.047,670.458 581.381,671.292 580.5,672C 530.429,672.828 480.429,672.661 430.5,671.5C 480.338,671.996 530.338,671.496 580.5,670C 581.331,625.904 581.831,581.738 582,537.5C 582.5,581.499 582.667,625.499 582.5,669.5 Z"/></g>
<g><path style="opacity:1" fill="#93381d" d="M 812.5,669.5 C 817.177,669.835 821.844,670.335 826.5,671C 827.833,672.667 827.833,674.333 826.5,676C 822.129,676.629 817.796,676.463 813.5,675.5C 813.167,673.5 812.833,671.5 812.5,669.5 Z"/></g>
<g><path style="opacity:1" fill="#dbe9f0" d="M 940.5,726.5 C 931.535,722.178 922.202,718.845 912.5,716.5C 911.594,707.49 910.594,698.49 909.5,689.5C 910.922,689.291 912.255,688.791 913.5,688C 927.154,675.867 936.654,661.033 942,643.5C 944.144,651.035 944.81,658.701 944,666.5C 941.175,679.793 938.675,693.126 936.5,706.5C 936.429,713.478 937.762,720.145 940.5,726.5 Z"/></g>
<g><path style="opacity:1" fill="#cb592d" d="M 174.5,680.5 C 169.539,685.381 167.539,691.381 168.5,698.5C 167.679,695.359 167.179,692.025 167,688.5C 164.896,684.518 163.396,680.352 162.5,676C 166.568,677.196 170.568,678.696 174.5,680.5 Z"/></g>
<g><path style="opacity:1" fill="#f29c6b" d="M 829.5,590.5 C 830.304,601.104 834.137,610.437 841,618.5C 849.964,629.221 861.13,636.221 874.5,639.5C 874.602,634.556 876.935,631.056 881.5,629C 889.022,627.396 895.189,629.563 900,635.5C 903.719,646.761 900.553,655.761 890.5,662.5C 888.658,662.723 886.825,663.057 885,663.5C 883.091,662.844 881.258,662.344 879.5,662C 882.423,665.173 886.089,666.34 890.5,665.5C 893.791,675.804 900.125,683.804 909.5,689.5C 910.594,698.49 911.594,707.49 912.5,716.5C 903.624,728.835 891.624,736.668 876.5,740C 872.074,740.791 867.741,740.457 863.5,739C 862.129,734.431 860.796,729.931 859.5,725.5C 860.597,721.223 860.597,716.89 859.5,712.5C 861.723,708.043 864.056,703.543 866.5,699C 863.261,699.81 859.928,700.643 856.5,701.5C 850.203,702.539 843.87,702.706 837.5,702C 823.068,699.065 815.068,690.232 813.5,675.5C 817.796,676.463 822.129,676.629 826.5,676C 827.833,674.333 827.833,672.667 826.5,671C 821.844,670.335 817.177,669.835 812.5,669.5C 812.205,665.102 811.538,660.769 810.5,656.5C 803.085,655.296 800.585,651.296 803,644.5C 809.977,639.361 814.81,632.694 817.5,624.5C 818.674,617.111 820.174,609.778 822,602.5C 823.762,597.964 826.262,593.964 829.5,590.5 Z"/></g>
<g><path style="opacity:1" fill="#131e39" d="M 829.5,624.5 C 834.655,625.797 836.488,629.13 835,634.5C 832.872,638.376 830.539,638.376 828,634.5C 827.037,630.851 827.537,627.518 829.5,624.5 Z"/></g>
<g><path style="opacity:1" fill="#c6562d" d="M 859.5,712.5 C 859.274,708.593 858.274,704.926 856.5,701.5C 859.928,700.643 863.261,699.81 866.5,699C 864.056,703.543 861.723,708.043 859.5,712.5 Z"/></g>
<g><path style="opacity:1" fill="#f4ebe5" d="M 594.5,742.5 C 594.068,743.71 593.401,744.71 592.5,745.5C 592.167,745.5 591.833,745.5 591.5,745.5C 524.001,744.667 456.335,744.167 388.5,744C 456.5,743.667 524.5,743.333 592.5,743C 593.256,741.62 593.922,741.453 594.5,742.5 Z"/></g>
<g><path style="opacity:1" fill="#709dba" d="M 386.5,745.5 C 454.833,745.5 523.167,745.5 591.5,745.5C 591.833,745.5 592.167,745.5 592.5,745.5C 592.672,746.492 592.338,747.158 591.5,747.5C 523.668,746.335 455.668,746.168 387.5,747C 386.672,748.992 385.339,750.492 383.5,751.5C 384.471,749.517 385.471,747.517 386.5,745.5 Z"/></g>
<g><path style="opacity:1" fill="#c45931" d="M 378.5,724.5 C 379.167,724.833 379.833,725.167 380.5,725.5C 374.529,731.301 368.363,736.967 362,742.5C 360.798,744.677 360.298,747.011 360.5,749.5C 365.657,748.842 370.49,747.175 375,744.5C 375.5,744.833 376,745.167 376.5,745.5C 372.985,749.007 368.818,751.341 364,752.5C 361.966,752.646 360.299,751.98 359,750.5C 358.503,748.19 358.337,745.857 358.5,743.5C 357.167,743.5 355.833,743.5 354.5,743.5C 354.249,740.091 354.583,736.758 355.5,733.5C 356.359,732.226 357.026,732.392 357.5,734C 356.713,736.099 356.38,738.266 356.5,740.5C 365.233,737.101 372.567,731.768 378.5,724.5 Z"/></g>
<g><path style="opacity:1" fill="#1a3753" d="M 696.5,746.5 C 702.54,757.367 704.873,769.034 703.5,781.5C 703.188,788.059 701.855,794.393 699.5,800.5C 694.528,799.578 689.528,799.412 684.5,800C 683.944,800.383 683.611,800.883 683.5,801.5C 682.122,803.97 682.455,806.304 684.5,808.5C 680.217,806.741 676.383,807.408 673,810.5C 672.492,815.163 674.658,817.496 679.5,817.5C 679.5,817.833 679.5,818.167 679.5,818.5C 675.855,817.68 673.522,819.013 672.5,822.5C 673.508,824.499 674.841,826.166 676.5,827.5C 651.744,840.922 628.078,839.088 605.5,822C 592.427,809.685 585.427,794.518 584.5,776.5C 584.678,766.269 587.011,756.602 591.5,747.5C 592.338,747.158 592.672,746.492 592.5,745.5C 593.401,744.71 594.068,743.71 594.5,742.5C 602.829,730.362 614.163,722.195 628.5,718C 657.93,711.894 680.597,721.394 696.5,746.5 Z"/></g>
<g><path style="opacity:1" fill="#f39e6c" d="M 381.5,675.5 C 382.872,676.888 383.872,678.555 384.5,680.5C 383.552,683.423 382.219,686.089 380.5,688.5C 374.521,693.812 368.854,699.479 363.5,705.5C 365.419,706.612 367.086,707.946 368.5,709.5C 364.52,711.471 360.187,712.638 355.5,713C 350.554,714.806 345.888,717.139 341.5,720C 348.166,718.185 354.833,716.018 361.5,713.5C 365.254,714.852 366.421,717.518 365,721.5C 360.05,725.726 354.55,729.059 348.5,731.5C 349.805,737.602 349.305,743.602 347,749.5C 346.117,752.102 344.617,754.269 342.5,756C 346.089,756.092 348.256,754.259 349,750.5C 350.795,744.52 352.462,738.52 354,732.5C 360.882,729.618 365.715,724.785 368.5,718C 368.294,716.634 367.96,715.301 367.5,714C 368.429,712.923 369.096,711.756 369.5,710.5C 372.625,708.828 375.458,709.162 378,711.5C 379.764,715.748 379.931,720.081 378.5,724.5C 372.567,731.768 365.233,737.101 356.5,740.5C 356.38,738.266 356.713,736.099 357.5,734C 357.026,732.392 356.359,732.226 355.5,733.5C 354.583,736.758 354.249,740.091 354.5,743.5C 355.833,743.5 357.167,743.5 358.5,743.5C 358.337,745.857 358.503,748.19 359,750.5C 360.299,751.98 361.966,752.646 364,752.5C 368.818,751.341 372.985,749.007 376.5,745.5C 376,745.167 375.5,744.833 375,744.5C 370.49,747.175 365.657,748.842 360.5,749.5C 360.298,747.011 360.798,744.677 362,742.5C 368.363,736.967 374.529,731.301 380.5,725.5C 382.017,725.511 383.184,726.177 384,727.5C 384.333,729.833 384.667,732.167 385,734.5C 387.776,737.769 388.276,741.436 386.5,745.5C 385.471,747.517 384.471,749.517 383.5,751.5C 375.833,759.833 367.833,767.833 359.5,775.5C 358.508,775.328 357.842,775.662 357.5,776.5C 354.816,778.193 352.149,779.86 349.5,781.5C 338.76,772.751 327.76,764.418 316.5,756.5C 317.697,752.905 318.697,749.239 319.5,745.5C 322.207,738.227 325.041,730.893 328,723.5C 341.872,705.294 358.039,689.461 376.5,676C 378.134,675.506 379.801,675.34 381.5,675.5 Z"/></g>
<g><path style="opacity:1" fill="#c45830" d="M 368.5,709.5 C 369.167,709.5 369.5,709.833 369.5,710.5C 369.096,711.756 368.429,712.923 367.5,714C 367.96,715.301 368.294,716.634 368.5,718C 365.715,724.785 360.882,729.618 354,732.5C 352.462,738.52 350.795,744.52 349,750.5C 348.256,754.259 346.089,756.092 342.5,756C 344.617,754.269 346.117,752.102 347,749.5C 349.305,743.602 349.805,737.602 348.5,731.5C 354.55,729.059 360.05,725.726 365,721.5C 366.421,717.518 365.254,714.852 361.5,713.5C 354.833,716.018 348.166,718.185 341.5,720C 345.888,717.139 350.554,714.806 355.5,713C 360.187,712.638 364.52,711.471 368.5,709.5 Z"/></g>
<g><path style="opacity:1" fill="#f9f1e6" d="M 670.5,750.5 C 678.143,750.143 680.643,753.476 678,760.5C 664.833,774.333 651.667,788.167 638.5,802C 636.5,802.667 634.5,802.667 632.5,802C 626.032,794.53 619.198,787.364 612,780.5C 611.5,774.333 614.333,771.5 620.5,772C 625.667,777.167 630.833,782.333 636,787.5C 647.705,775.297 659.205,762.964 670.5,750.5 Z"/></g>
<g><path style="opacity:1" fill="#8badc3" d="M 591.5,747.5 C 587.011,756.602 584.678,766.269 584.5,776.5C 584.167,776.5 583.833,776.5 583.5,776.5C 509.764,775.832 435.931,775.165 362,774.5C 361.329,775.252 360.496,775.586 359.5,775.5C 367.833,767.833 375.833,759.833 383.5,751.5C 385.339,750.492 386.672,748.992 387.5,747C 455.668,746.168 523.668,746.335 591.5,747.5 Z"/></g>
<g><path style="opacity:1" fill="#8bacc2" d="M 218.5,745.5 C 252.167,745.5 285.833,745.5 319.5,745.5C 318.697,749.239 317.697,752.905 316.5,756.5C 314.52,755.284 312.52,754.451 310.5,754C 302.604,761.728 294.937,769.562 287.5,777.5C 270.833,776.167 254.167,776.167 237.5,777.5C 231.685,766.539 225.352,755.872 218.5,745.5 Z"/></g>
<g><path style="opacity:1" fill="#8badc2" d="M 829.5,745.5 C 822.493,755.154 816.826,765.488 812.5,776.5C 776.5,776.5 740.5,776.5 704.5,776.5C 704.784,778.415 704.451,780.081 703.5,781.5C 704.873,769.034 702.54,757.367 696.5,746.5C 740.761,745.506 785.095,745.172 829.5,745.5 Z"/></g>
<g><path style="opacity:1" fill="#7199b3" d="M 583.5,776.5 C 508.167,776.5 432.833,776.5 357.5,776.5C 357.842,775.662 358.508,775.328 359.5,775.5C 360.496,775.586 361.329,775.252 362,774.5C 435.931,775.165 509.764,775.832 583.5,776.5 Z"/></g>
<g><path style="opacity:1" fill="#d9e9f1" d="M 357.5,776.5 C 432.833,776.5 508.167,776.5 583.5,776.5C 583.833,776.5 584.167,776.5 584.5,776.5C 585.427,794.518 592.427,809.685 605.5,822C 628.078,839.088 651.744,840.922 676.5,827.5C 678.553,827.402 680.22,828.069 681.5,829.5C 681.5,829.833 681.5,830.167 681.5,830.5C 680.387,831.946 680.22,833.613 681,835.5C 697.152,849.494 715.652,859.161 736.5,864.5C 735.386,865.885 734.386,867.385 733.5,869C 748.831,886.172 765.831,901.339 784.5,914.5C 788.818,928.292 793.818,941.792 799.5,955C 802.87,957.078 806.537,957.911 810.5,957.5C 810.211,967.169 809.878,976.835 809.5,986.5C 811.099,986.232 812.432,986.566 813.5,987.5C 810.938,999.226 809.604,1011.23 809.5,1023.5C 612.167,1023.5 414.833,1023.5 217.5,1023.5C 216.227,1007.49 214.893,991.495 213.5,975.5C 213.259,973.114 213.925,971.114 215.5,969.5C 215.776,935.242 215.776,900.908 215.5,866.5C 221.65,871.809 227.983,876.976 234.5,882C 253.547,892.14 271.213,890.14 287.5,876C 313.312,849.014 335.979,819.681 355.5,788C 353.294,785.963 351.294,783.797 349.5,781.5C 352.149,779.86 354.816,778.193 357.5,776.5 Z"/></g>
<g><path style="opacity:1" fill="#cb6138" d="M 912.5,716.5 C 922.202,718.845 931.535,722.178 940.5,726.5C 955.929,733.932 968.595,744.599 978.5,758.5C 983.121,766.078 986.955,774.078 990,782.5C 997.851,812.122 1003.85,842.122 1008,872.5C 1009.45,883.464 1009.79,894.464 1009,905.5C 1008.07,909.637 1006.73,913.637 1005,917.5C 995.957,930.007 983.791,937.007 968.5,938.5C 952.077,938.857 935.743,937.857 919.5,935.5C 923.755,921.677 924.421,907.677 921.5,893.5C 921.833,892.833 922.167,892.167 922.5,891.5C 937.496,888.067 952.496,884.567 967.5,881C 968.406,879.301 968.739,877.467 968.5,875.5C 961.783,876.619 955.117,877.953 948.5,879.5C 943.191,853.734 937.358,828.067 931,802.5C 928.833,801 927.333,801.5 926.5,804C 933.255,829.61 938.922,855.443 943.5,881.5C 932.889,883.653 922.222,885.486 911.5,887C 910.944,887.383 910.611,887.883 910.5,888.5C 902.122,883.927 893.455,879.927 884.5,876.5C 880.846,862.369 876.679,848.369 872,834.5C 870.258,831.254 867.758,828.921 864.5,827.5C 854.919,827.138 845.419,826.138 836,824.5C 835.601,824.728 835.435,825.062 835.5,825.5C 834.691,824.531 833.691,823.698 832.5,823C 821.505,822.5 810.505,822.333 799.5,822.5C 803.522,807.077 807.856,791.744 812.5,776.5C 816.826,765.488 822.493,755.154 829.5,745.5C 837.842,736.33 847.842,729.664 859.5,725.5C 860.796,729.931 862.129,734.431 863.5,739C 867.741,740.457 872.074,740.791 876.5,740C 891.624,736.668 903.624,728.835 912.5,716.5 Z"/></g>
<g><path style="opacity:1" fill="#dae9f1" d="M 812.5,776.5 C 807.856,791.744 803.522,807.077 799.5,822.5C 796.482,822.335 793.482,822.502 790.5,823C 788.963,824.11 788.297,825.61 788.5,827.5C 779.416,827.196 770.416,827.529 761.5,828.5C 753.224,815.044 743.224,802.877 731.5,792C 729.559,791.257 727.726,791.424 726,792.5C 725.333,795.5 725.333,798.5 726,801.5C 728.36,804.36 730.527,807.36 732.5,810.5C 730.596,811.409 728.762,812.409 727,813.5C 717.868,809.016 708.701,804.683 699.5,800.5C 701.855,794.393 703.188,788.059 703.5,781.5C 704.451,780.081 704.784,778.415 704.5,776.5C 740.5,776.5 776.5,776.5 812.5,776.5 Z"/></g>
<g><path style="opacity:1" fill="#c34e26" d="M 683.5,801.5 C 683.84,803.679 684.84,805.512 686.5,807C 692.489,808.996 698.489,810.996 704.5,813C 705.167,813.667 705.833,814.333 706.5,815C 699.334,812.602 692,810.435 684.5,808.5C 682.455,806.304 682.122,803.97 683.5,801.5 Z"/></g>
<g><path style="opacity:1" fill="#953b20" d="M 820.5,806.5 C 821.833,806.5 823.167,806.5 824.5,806.5C 824.587,811.537 824.254,816.537 823.5,821.5C 821.801,821.66 820.134,821.494 818.5,821C 819.315,816.222 819.981,811.389 820.5,806.5 Z"/></g>
<g><path style="opacity:1" fill="#c05029" d="M 679.5,818.5 C 679.5,818.167 679.5,817.833 679.5,817.5C 687.742,818.026 695.408,820.359 702.5,824.5C 702.167,824.833 701.833,825.167 701.5,825.5C 694.459,822.24 687.126,819.907 679.5,818.5 Z"/></g>
<g><path style="opacity:1" fill="#f29c6b" d="M 761.5,828.5 C 759.394,830.719 758.394,833.385 758.5,836.5C 754.196,842.321 750.03,848.321 746,854.5C 743.332,858.334 740.165,861.667 736.5,864.5C 715.652,859.161 697.152,849.494 681,835.5C 680.22,833.613 680.387,831.946 681.5,830.5C 689.348,832.839 697.181,835.506 705,838.5C 705.167,838.167 705.333,837.833 705.5,837.5C 697.85,833.839 689.85,831.172 681.5,829.5C 680.22,828.069 678.553,827.402 676.5,827.5C 674.841,826.166 673.508,824.499 672.5,822.5C 673.522,819.013 675.855,817.68 679.5,818.5C 687.126,819.907 694.459,822.24 701.5,825.5C 701.833,825.167 702.167,824.833 702.5,824.5C 695.408,820.359 687.742,818.026 679.5,817.5C 674.658,817.496 672.492,815.163 673,810.5C 676.383,807.408 680.217,806.741 684.5,808.5C 692,810.435 699.334,812.602 706.5,815C 705.833,814.333 705.167,813.667 704.5,813C 698.489,810.996 692.489,808.996 686.5,807C 684.84,805.512 683.84,803.679 683.5,801.5C 683.611,800.883 683.944,800.383 684.5,800C 689.528,799.412 694.528,799.578 699.5,800.5C 708.701,804.683 717.868,809.016 727,813.5C 728.762,812.409 730.596,811.409 732.5,810.5C 730.527,807.36 728.36,804.36 726,801.5C 725.333,798.5 725.333,795.5 726,792.5C 727.726,791.424 729.559,791.257 731.5,792C 743.224,802.877 753.224,815.044 761.5,828.5 Z"/></g>
<g><path style="opacity:1" fill="#c75b33" d="M 729.5,814.5 C 731.275,818.386 732.108,822.72 732,827.5C 733.455,831.196 735.288,834.696 737.5,838C 733.48,836.648 730.646,833.814 729,829.5C 727.033,824.278 727.2,819.278 729.5,814.5 Z"/></g>
<g><path style="opacity:1" fill="#f56d30" d="M 864.5,827.5 C 854.833,827.5 845.167,827.5 835.5,827.5C 835.5,826.833 835.5,826.167 835.5,825.5C 835.435,825.062 835.601,824.728 836,824.5C 845.419,826.138 854.919,827.138 864.5,827.5 Z"/></g>
<g><path style="opacity:1" fill="#10243a" d="M 799.5,822.5 C 810.505,822.333 821.505,822.5 832.5,823C 833.691,823.698 834.691,824.531 835.5,825.5C 835.5,826.167 835.5,826.833 835.5,827.5C 836.423,831.064 836.756,834.731 836.5,838.5C 821.485,838.833 806.485,838.499 791.5,837.5C 790.305,835.249 789.305,832.915 788.5,830.5C 779.853,829.335 771.186,829.168 762.5,830C 760.752,832.013 759.418,834.18 758.5,836.5C 758.394,833.385 759.394,830.719 761.5,828.5C 770.416,827.529 779.416,827.196 788.5,827.5C 788.297,825.61 788.963,824.11 790.5,823C 793.482,822.502 796.482,822.335 799.5,822.5 Z"/></g>
<g><path style="opacity:1" fill="#be4a24" d="M 681.5,829.5 C 689.85,831.172 697.85,833.839 705.5,837.5C 705.333,837.833 705.167,838.167 705,838.5C 697.181,835.506 689.348,832.839 681.5,830.5C 681.5,830.167 681.5,829.833 681.5,829.5 Z"/></g>
<g><path style="opacity:1" fill="#0e2238" d="M 215.5,866.5 C 215.776,900.908 215.776,935.242 215.5,969.5C 214.833,934.664 214.167,899.664 213.5,864.5C 212.808,863.975 212.308,863.308 212,862.5C 211.564,841.103 210.397,819.77 208.5,798.5C 208.833,794.5 209.167,790.5 209.5,786.5C 210.086,786.709 210.586,787.043 211,787.5C 215.008,813.228 217.175,839.061 217.5,865C 216.584,865.278 215.918,865.778 215.5,866.5 Z"/></g>
<g><path style="opacity:1" fill="#5285a6" d="M 579.5,861.5 C 528.416,861.009 477.416,861.509 426.5,863C 424.962,864.932 423.795,867.099 423,869.5C 415.561,900.374 408.728,931.374 402.5,962.5C 401.21,961.942 400.377,960.942 400,959.5C 399.5,916.168 399.333,872.835 399.5,829.5C 400.063,826.705 401.396,824.372 403.5,822.5C 421.456,821.36 439.456,821.193 457.5,822C 463.597,829.52 469.93,836.853 476.5,844C 508.167,844.333 539.833,844.667 571.5,845C 578.268,848.372 580.935,853.872 579.5,861.5 Z"/></g>
<g><path style="opacity:1" fill="#923a20" d="M 968.5,938.5 C 968.5,941.167 968.5,943.833 968.5,946.5C 946.767,944.408 925.1,941.742 903.5,938.5C 902.27,936.703 901.604,934.703 901.5,932.5C 905.182,932.665 908.848,932.499 912.5,932C 915.102,931.065 916.602,929.232 917,926.5C 918.974,915.158 918.974,903.825 917,892.5C 915.056,890.779 912.89,889.446 910.5,888.5C 910.611,887.883 910.944,887.383 911.5,887C 922.222,885.486 932.889,883.653 943.5,881.5C 938.922,855.443 933.255,829.61 926.5,804C 927.333,801.5 928.833,801 931,802.5C 937.358,828.067 943.191,853.734 948.5,879.5C 955.117,877.953 961.783,876.619 968.5,875.5C 968.739,877.467 968.406,879.301 967.5,881C 952.496,884.567 937.496,888.067 922.5,891.5C 922.167,892.167 921.833,892.833 921.5,893.5C 924.421,907.677 923.755,921.677 919.5,935.5C 935.743,937.857 952.077,938.857 968.5,938.5 Z"/></g>
<g><path style="opacity:1" fill="#1a3854" d="M 835.5,827.5 C 845.167,827.5 854.833,827.5 864.5,827.5C 867.758,828.921 870.258,831.254 872,834.5C 876.679,848.369 880.846,862.369 884.5,876.5C 868.948,875.776 854.281,878.943 840.5,886C 836.312,889.435 836.645,892.268 841.5,894.5C 841.5,895.167 841.5,895.833 841.5,896.5C 835.843,898.626 835.177,901.793 839.5,906C 843.152,906.499 846.818,906.665 850.5,906.5C 850.5,907.167 850.5,907.833 850.5,908.5C 843.523,910.559 842.857,913.725 848.5,918C 851.482,918.498 854.482,918.665 857.5,918.5C 857.5,918.833 857.5,919.167 857.5,919.5C 851.942,923.48 852.609,926.647 859.5,929C 873.587,930.864 887.587,932.03 901.5,932.5C 901.604,934.703 902.27,936.703 903.5,938.5C 904.817,942.757 905.317,947.09 905,951.5C 903.74,954.428 901.573,956.261 898.5,957C 869.169,957.5 839.835,957.667 810.5,957.5C 806.537,957.911 802.87,957.078 799.5,955C 793.818,941.792 788.818,928.292 784.5,914.5C 776.039,888.449 767.372,862.449 758.5,836.5C 759.418,834.18 760.752,832.013 762.5,830C 771.186,829.168 779.853,829.335 788.5,830.5C 789.305,832.915 790.305,835.249 791.5,837.5C 806.485,838.499 821.485,838.833 836.5,838.5C 836.756,834.731 836.423,831.064 835.5,827.5 Z"/></g>
<g><path style="opacity:1" fill="#cc6037" d="M 758.5,836.5 C 767.372,862.449 776.039,888.449 784.5,914.5C 765.831,901.339 748.831,886.172 733.5,869C 734.386,867.385 735.386,865.885 736.5,864.5C 740.165,861.667 743.332,858.334 746,854.5C 750.03,848.321 754.196,842.321 758.5,836.5 Z"/></g>
<g><path style="opacity:1" fill="#1a3854" d="M 109.5,690.5 C 113.426,693.807 117.76,696.64 122.5,699C 134.523,704.84 147.189,707.507 160.5,707C 164.512,706.488 167.179,704.321 168.5,700.5C 177.705,703.435 186.038,707.935 193.5,714C 202.925,723.711 211.258,734.211 218.5,745.5C 225.352,755.872 231.685,766.539 237.5,777.5C 242.77,787.942 248.27,798.275 254,808.5C 254.671,809.252 255.504,809.586 256.5,809.5C 266.135,801.385 275.635,792.385 285,782.5C 285.464,781.906 285.631,781.239 285.5,780.5C 286.167,779.5 286.833,778.5 287.5,777.5C 294.937,769.562 302.604,761.728 310.5,754C 312.52,754.451 314.52,755.284 316.5,756.5C 327.76,764.418 338.76,772.751 349.5,781.5C 351.294,783.797 353.294,785.963 355.5,788C 335.979,819.681 313.312,849.014 287.5,876C 271.213,890.14 253.547,892.14 234.5,882C 227.983,876.976 221.65,871.809 215.5,866.5C 215.918,865.778 216.584,865.278 217.5,865C 217.175,839.061 215.008,813.228 211,787.5C 210.586,787.043 210.086,786.709 209.5,786.5C 209.167,790.5 208.833,794.5 208.5,798.5C 210.397,819.77 211.564,841.103 212,862.5C 212.308,863.308 212.808,863.975 213.5,864.5C 214.167,899.664 214.833,934.664 215.5,969.5C 213.925,971.114 213.259,973.114 213.5,975.5C 212.71,974.391 212.21,973.058 212,971.5C 204.624,972.994 197.124,973.827 189.5,974C 158.588,975.946 127.755,975.779 97,973.5C 94.7227,943.507 92.556,913.507 90.5,883.5C 93.4637,854.696 96.1304,825.863 98.5,797C 98.3333,794.167 98.1667,791.333 98,788.5C 94.1667,787 93,788.167 94.5,792C 92.0367,816.872 88.8701,841.705 85,866.5C 84.8333,871.167 84.6667,875.833 84.5,880.5C 86.8381,918.557 89.8381,956.557 93.5,994.5C 93.38,997.064 92.0467,998.564 89.5,999C 89.7284,999.399 90.0618,999.565 90.5,999.5C 75.5178,1003.44 60.1845,1006.11 44.5,1007.5C 42.2776,1007.82 40.4443,1007.16 39,1005.5C 30.0013,975.006 23.5013,944.006 19.5,912.5C 20.1582,911.207 20.4915,909.707 20.5,908C 19.1783,892.698 18.1783,877.532 17.5,862.5C 20.1774,830.925 24.6774,799.592 31,768.5C 34.5476,752.406 41.5476,738.073 52,725.5C 66.9242,711.09 84.0909,700.09 103.5,692.5C 105.5,691.833 107.5,691.167 109.5,690.5 Z"/></g>
<g><path style="opacity:1" fill="#051937" d="M 285.5,780.5 C 285.631,781.239 285.464,781.906 285,782.5C 275.635,792.385 266.135,801.385 256.5,809.5C 265.833,799.5 275.5,789.833 285.5,780.5 Z"/></g>
<g><path style="opacity:1" fill="#dceaf1" d="M 287.5,777.5 C 286.833,778.5 286.167,779.5 285.5,780.5C 275.5,789.833 265.833,799.5 256.5,809.5C 255.504,809.586 254.671,809.252 254,808.5C 248.27,798.275 242.77,787.942 237.5,777.5C 254.167,776.167 270.833,776.167 287.5,777.5 Z"/></g>
<g><path style="opacity:1" fill="#bb4b25" d="M 841.5,896.5 C 841.5,895.833 841.5,895.167 841.5,894.5C 846.843,893.442 852.176,892.275 857.5,891C 862.5,890.333 867.5,890.333 872.5,891C 861.998,892.194 851.665,894.027 841.5,896.5 Z"/></g>
<g><path style="opacity:1" fill="#04102a" d="M 17.5,862.5 C 18.1783,877.532 19.1783,892.698 20.5,908C 20.4915,909.707 20.1582,911.207 19.5,912.5C 17.91,895.88 17.2434,879.213 17.5,862.5 Z"/></g>
<g><path style="opacity:1" fill="#f9fbfc" d="M 403.5,822.5 C 401.396,824.372 400.063,826.705 399.5,829.5C 398.667,872.331 398.167,915.331 398,958.5C 397.333,915.167 397.333,871.833 398,828.5C 398.715,825.359 400.548,823.359 403.5,822.5 Z"/></g>
<g><path style="opacity:1" fill="#bf4e27" d="M 850.5,908.5 C 850.5,907.833 850.5,907.167 850.5,906.5C 857.344,905.999 864.178,905.332 871,904.5C 873.167,904.833 875.333,905.167 877.5,905.5C 868.464,906.293 859.464,907.293 850.5,908.5 Z"/></g>
<g><path style="opacity:1" fill="#f29d6b" d="M 884.5,876.5 C 893.455,879.927 902.122,883.927 910.5,888.5C 912.89,889.446 915.056,890.779 917,892.5C 918.974,903.825 918.974,915.158 917,926.5C 916.602,929.232 915.102,931.065 912.5,932C 908.848,932.499 905.182,932.665 901.5,932.5C 887.587,932.03 873.587,930.864 859.5,929C 852.609,926.647 851.942,923.48 857.5,919.5C 866.553,919.544 875.553,918.877 884.5,917.5C 875.514,917.008 866.514,917.341 857.5,918.5C 854.482,918.665 851.482,918.498 848.5,918C 842.857,913.725 843.523,910.559 850.5,908.5C 859.464,907.293 868.464,906.293 877.5,905.5C 875.333,905.167 873.167,904.833 871,904.5C 864.178,905.332 857.344,905.999 850.5,906.5C 846.818,906.665 843.152,906.499 839.5,906C 835.177,901.793 835.843,898.626 841.5,896.5C 851.665,894.027 861.998,892.194 872.5,891C 867.5,890.333 862.5,890.333 857.5,891C 852.176,892.275 846.843,893.442 841.5,894.5C 836.645,892.268 836.312,889.435 840.5,886C 854.281,878.943 868.948,875.776 884.5,876.5 Z"/></g>
<g><path style="opacity:1" fill="#8bacc2" d="M 579.5,861.5 C 587.371,860.381 591.704,863.715 592.5,871.5C 586.113,902.045 578.947,932.378 571,962.5C 569.269,964.617 567.102,966.117 564.5,967C 512.167,967.667 459.833,967.667 407.5,967C 405.34,966.004 403.673,964.504 402.5,962.5C 408.728,931.374 415.561,900.374 423,869.5C 423.795,867.099 424.962,864.932 426.5,863C 477.416,861.509 528.416,861.009 579.5,861.5 Z"/></g>
<g><path style="opacity:1" fill="#bc4b26" d="M 857.5,919.5 C 857.5,919.167 857.5,918.833 857.5,918.5C 866.514,917.341 875.514,917.008 884.5,917.5C 875.553,918.877 866.553,919.544 857.5,919.5 Z"/></g>
<g><path style="opacity:1" fill="#cc6138" d="M 903.5,938.5 C 925.1,941.742 946.767,944.408 968.5,946.5C 969.706,959.466 970.373,972.466 970.5,985.5C 969.209,985.263 968.209,985.596 967.5,986.5C 916.191,991.308 864.857,991.641 813.5,987.5C 812.432,986.566 811.099,986.232 809.5,986.5C 809.878,976.835 810.211,967.169 810.5,957.5C 839.835,957.667 869.169,957.5 898.5,957C 901.573,956.261 903.74,954.428 905,951.5C 905.317,947.09 904.817,942.757 903.5,938.5 Z"/></g>
<g><path style="opacity:1" fill="#0e243a" d="M 213.5,975.5 C 214.893,991.495 216.227,1007.49 217.5,1023.5C 178.833,1023.5 140.167,1023.5 101.5,1023.5C 99.2961,1015.02 96.6294,1006.68 93.5,998.5C 92.5832,999.127 91.5832,999.461 90.5,999.5C 90.0618,999.565 89.7284,999.399 89.5,999C 92.0467,998.564 93.38,997.064 93.5,994.5C 89.8381,956.557 86.8381,918.557 84.5,880.5C 84.6667,875.833 84.8333,871.167 85,866.5C 88.8701,841.705 92.0367,816.872 94.5,792C 93,788.167 94.1667,787 98,788.5C 98.1667,791.333 98.3333,794.167 98.5,797C 96.1304,825.863 93.4637,854.696 90.5,883.5C 92.556,913.507 94.7227,943.507 97,973.5C 127.755,975.779 158.588,975.946 189.5,974C 197.124,973.827 204.624,972.994 212,971.5C 212.21,973.058 212.71,974.391 213.5,975.5 Z"/></g>
<g><path style="opacity:1" fill="#1a3754" d="M 967.5,986.5 C 969.991,998.798 972.324,1011.13 974.5,1023.5C 919.5,1023.5 864.5,1023.5 809.5,1023.5C 809.604,1011.23 810.938,999.226 813.5,987.5C 864.857,991.641 916.191,991.308 967.5,986.5 Z"/></g>
<g><path style="opacity:1" fill="#f29c6b" d="M 101.5,1023.5 C 82.8333,1023.5 64.1667,1023.5 45.5,1023.5C 44.8058,1018.2 44.4724,1012.86 44.5,1007.5C 60.1845,1006.11 75.5178,1003.44 90.5,999.5C 91.5832,999.461 92.5832,999.127 93.5,998.5C 96.6294,1006.68 99.2961,1015.02 101.5,1023.5 Z"/></g>
</svg>
